<svg width="1920" height="381" viewBox="0 0 1920 381" fill="none" xmlns="http://www.w3.org/2000/svg">
<mask id="mask0_1_950" style="mask-type:alpha" maskUnits="userSpaceOnUse" x="0" y="0" width="1920" height="381">
<rect y="0.862793" width="1920" height="380" fill="#F8F0EA"/>
</mask>
<g mask="url(#mask0_1_950)">
<path d="M296.711 161.603C291.579 153.166 286.457 149.582 278.316 146.451C269.336 143 257.391 146.828 249.958 153.257C246.331 156.406 242.54 162.257 241.487 167.01C240.181 172.579 240.402 176.483 241.456 181.149C246.39 202.748 264.309 222.614 288.566 229.19C288.566 229.19 288.566 229.19 288.588 229.257C288.521 229.278 288.409 229.388 288.364 229.476C280.549 228.742 271.043 236.277 271.223 253.145C271.216 255.649 271.545 257.825 271.754 258.935C271.922 259.69 272.003 260.401 272.537 262.069C273.051 263.671 273.505 264.629 274.133 265.899C274.328 266.278 275.044 267.594 275.501 268.331C279.091 274.024 283.041 277.394 289.614 278.158C291.259 291.097 300.367 302.528 292.615 311.635C291.246 313.104 289.525 314.391 287.531 314.368C289.372 312.306 290.388 310.656 289.914 307.57C289.545 305.039 287.196 299.316 282.642 300.261C275.821 301.71 276.186 312.264 284.332 314.952C282.203 317.032 279.067 319.877 278.142 323.19C276.662 328.447 279.19 332.2 281.295 336.014C285.834 343.979 280.698 345.404 284.122 350.12C285.06 351.438 287.258 353.015 289.76 353.244C295.227 353.773 293.926 351.32 292.971 351.553C289.946 352.448 287.869 351.937 285.85 350.229C281.903 346.637 285.877 344.112 284.014 338.528C281.849 332.231 275.567 327.327 282.599 319.186C283.474 318.244 285.646 316.297 286.522 315.354C290.438 315.865 293.572 313.242 295.605 309.941C301.162 300.875 292.974 288.414 291.742 278.138C294.113 278.188 295.578 277.939 297.244 277.626C300.488 276.955 303.984 273.627 304.281 269.043C304.365 267.47 304.277 265.585 303.43 264.091C302.495 262.551 299.846 261.633 298.316 261.682C294.325 261.857 288.847 267.954 289.587 276.695C281.292 275.379 275.54 266.847 274.018 258.651C270.965 242.925 278.924 231.25 287.083 230.99C285.73 232.969 284.414 239.425 284.363 239.956C284.284 241.085 285.269 242.094 286.935 241.781C288.601 241.468 289.417 239.882 291.072 238.616C294.309 236.548 296.995 236.203 297.478 234.723C298.051 233.068 296.126 232.802 291.912 229.296C296.708 226.581 296.275 231.43 300.908 233.256C305.871 235.198 308.662 229.668 306.234 226.914C310.056 224.144 310.017 219.888 310.225 219.159C311.362 218.574 309.869 217.36 309.119 218.925C308.802 219.541 308.464 223.77 305.027 225.902C299.811 222.717 300.97 229.778 305.364 227.413C307.685 229.834 303.869 235.84 298.364 228.994C296.508 226.645 294.321 226.021 291.735 227.365C306.327 205.617 310.063 183.521 296.711 161.603ZM285.12 313.963C276.082 311.708 277.543 300.423 284.113 301.408C286.698 302.125 289.186 307.362 287.751 310.692C287.094 311.859 286.016 313.087 285.12 313.963ZM299.321 262.979C301.862 263.563 302.407 264.345 302.859 265.525C304.142 269.529 302.39 273.475 299.507 275.503C297.185 276.983 294.104 277.013 291.491 276.894C290.59 268.573 295.206 262.311 299.321 262.979ZM302.496 226.272C302.541 226.184 302.563 226.25 302.496 226.272C302.541 226.184 302.563 226.25 302.496 226.272ZM302.629 226.229C302.608 226.162 302.608 226.162 302.629 226.229C302.608 226.162 302.608 226.162 302.629 226.229C302.608 226.162 302.608 226.162 302.629 226.229ZM302.696 226.208C302.918 226.21 303.227 226.258 303.647 226.418C303.158 226.501 302.982 226.41 302.696 226.208ZM243.36 169.868C243.381 169.935 243.314 169.957 243.336 170.023L243.36 169.868ZM243.312 170.178C243.333 170.245 243.267 170.266 243.288 170.333C243.267 170.266 243.312 170.178 243.312 170.178ZM287.19 238.903C287.957 233.948 291.412 236.005 293.83 233.905C293.94 234.017 294.028 234.063 294.204 234.153C288.522 236.858 289.232 236.777 287.19 238.903ZM292.754 233.073C291.505 233.767 288.803 233.603 287.255 235.203C287.674 233.523 288.066 232.22 289.165 231.059C289.475 231.107 289.72 230.954 289.857 230.69C291.173 231.813 291.128 231.901 292.754 233.073ZM299.845 206.517C296.546 215.742 288.99 227.067 288.694 227.751C285.8 226.986 278.414 223.687 275.901 222.505C275.901 222.505 262.406 216.674 249.546 196.291C247.457 192.987 246.15 189.137 245.7 187.736C242.533 178.081 242.702 174.936 243.357 170.09C243.674 167.634 245.047 163.882 247.371 160.341C254.431 149.764 267.076 146.742 274.838 148.228C277.601 148.814 279.716 149.903 282.296 151.063C286.216 153.192 288.063 154.366 291.493 158.639C301.87 171.503 305.645 189.941 299.845 206.517Z" fill="#EFE2DA"/>
<path d="M290.283 163.589C290.109 163.277 289.575 163.448 289.482 163.846C289.479 164.067 290.548 165.564 290.7 165.81C292.704 168.847 294.128 172.144 294.828 174.789C297.101 183.259 296.28 185.289 297.497 185.414C298.715 185.539 298.359 183.739 297.578 180.384C295.297 170.739 293.095 167.544 290.283 163.589Z" fill="#EFE2DA"/>
<path d="M297.178 188.091C296.709 188.463 296.904 188.842 297.1 191.06C297.14 191.415 297.447 191.685 297.802 191.645C298.865 191.746 298.637 190.347 298.546 188.684C298.511 187.885 297.693 187.632 297.178 188.091Z" fill="#EFE2DA"/>
<path d="M298.324 194.421C297.504 194.389 297.828 195.169 297.666 197.649C297.483 200.062 296.995 201.985 296.173 204.014C292.986 211.29 292.847 211.776 293.686 212.096C294.415 212.304 294.575 211.885 296.22 207.605C297.316 204.825 298.658 201.893 298.776 197.44C298.8 197.285 298.871 194.981 298.807 194.781C298.765 194.648 298.567 194.49 298.324 194.421Z" fill="#EFE2DA"/>
<path d="M290.908 216.518C290.476 217.466 289.998 218.502 289.566 219.45C289.339 219.891 289.887 220.451 290.466 220.192C290.712 220.04 292.211 216.91 292.192 216.622C292.088 216.067 291.204 215.835 290.908 216.518Z" fill="#EFE2DA"/>
<path d="M253.778 158.288C252.503 159.359 251.315 160.475 250.28 161.837C247.353 165.793 246.243 175.42 247.031 176.271C247.512 176.853 248.403 176.42 248.433 175.822C248.511 172.853 248.892 168.758 249.79 165.821C250.689 162.884 251.206 162.203 253 160.451C253.829 159.596 255.033 158.99 254.486 158.429C254.312 158.117 254.002 158.069 253.778 158.288Z" fill="#EFE2DA"/>
<path d="M248.649 183.848C247.961 183.995 248.263 184.708 248.707 186.552C248.813 186.886 249.236 188.664 249.522 188.866C249.896 189.115 250.432 188.722 250.304 188.322C249.216 184.696 249.472 183.658 248.649 183.848Z" fill="#EFE2DA"/>
<path d="M252.936 196.308C252.356 196.568 252.506 197.035 253.826 199.776C254.93 202.072 255.664 203.676 256.47 202.976C256.695 202.757 256.809 202.426 256.547 202.068C254.039 198.604 254.139 195.702 252.936 196.308Z" fill="#EFE2DA"/>
<path d="M161.684 10.5174C159.906 12.5866 161.822 16.9752 163.321 19.4094C164.698 21.6918 173.083 33.0496 178.854 37.5909C178.63 37.3724 178.751 37.5241 178.957 37.6577C175.817 48.7274 160.647 56.3286 156.48 48.0672C158.179 47.7035 162.999 47.383 165.014 45.1742C167.971 41.9643 165.186 36.4283 159.408 37.6651C155.754 38.4471 153.647 42.7194 153.901 46.3975C151.594 47.2466 149.433 48.7756 147.776 50.9966C145.699 53.7515 149.462 54.7236 149.365 52.6114C150.015 51.4948 151.867 49.7655 154.392 48.6918C158.116 58.2034 174.006 54.8024 180.407 41.5243C179.574 46.768 177.34 49.2012 174.231 53.7768C171.542 57.8183 166.781 66.3021 148.005 79.474C144.442 81.9251 138.851 85.6989 130.997 89.6906C117.521 96.485 96.4771 101.966 87.391 103.111C55.5381 107.085 24.5028 93.2878 9.10304 76.1442C19.7297 79.2907 21.8723 78.921 25.2773 78.6366C30.06 78.1462 32.3424 76.769 33.7873 75.2156C34.9469 73.9899 35.5906 72.4302 36.0462 70.8219C45.7218 66.6182 50.6591 54.8085 59.0835 53.8941C59.6966 53.8518 59.7997 53.9186 60.0061 54.0521C61.2258 54.7686 61.7777 56.5167 61.9596 57.3665C61.9777 57.4515 61.8928 57.4696 61.911 57.5546C61.7288 57.9491 61.5952 58.1554 61.6861 58.5803C62.0317 60.1948 64.8237 59.9527 64.4906 56.7359C64.4301 56.0379 63.7933 54.308 62.8043 53.0089C61.2085 50.951 59.0296 51.1507 56.7716 51.8117C55.4302 52.1877 54.55 52.6427 52.9597 53.5163C48.8987 55.7185 43.4647 63.5466 36.7025 67.66C36.4971 63.7937 30.7501 61.0247 26.7252 64.641C23.6959 67.5111 26.0617 72.3368 32.8535 71.683C31.4751 74.3774 29.1322 75.0566 26.1217 75.5232C19.6757 76.5474 18.1891 74.9993 8.32069 73.7345C8.75779 73.2854 8.64866 72.7756 8.60633 72.1626C14.1494 64.8443 14.5138 64.0554 16.2566 60.572C18.9952 55.0981 21.6435 46.7109 17.997 41.7149C16.2436 39.3353 12.8326 39.1767 9.83344 43.0178C8.86203 44.2922 8.20011 45.7669 7.62317 47.2234C4.12511 55.7924 5.19784 62.0502 5.97897 69.4368C5.43932 67.3306 3.51056 62.0558 1.79974 59.045C1.4843 58.4016 0.301214 56.6109 -1.13679 54.8747C-2.71434 52.9017 -4.4681 51.7663 -6.87752 51.3045C-15.6595 49.7182 -15.1724 68.1874 3.53761 75.4691C-0.494445 83.6193 -5.1392 90.5675 -14.3344 91.2026C-15.0324 91.2631 -15.9367 91.19 -16.6893 90.9956C-13.0225 87.367 -12.4023 82.7909 -14.1191 79.337C-17.7408 72.3807 -25.4798 74.8368 -25.7002 82.5267C-25.7735 84.6752 -24.8883 88.3959 -22.091 91.0853C-27.6451 93.7848 -38.728 94.735 -39.7985 103.851C-40.2243 107.674 -37.5778 106.753 -37.5775 105.508C-37.4418 96.5925 -25.4549 96.9596 -19.2874 92.9736C-13.4555 95.7244 -6.34139 92.4245 -3.65825 90.4283C-0.689765 88.1045 2.67349 84.7186 6.39605 76.3681C6.89337 77.8613 11.2745 81.7225 12.8279 83.1673C12.8461 83.2523 12.8643 83.3373 12.7975 83.4405C14.4764 92.9455 12.6793 94.9297 14.0156 115.705C14.6562 126.588 14.2041 138.593 16.5101 140.232C18.9192 141.938 22.8412 137.011 24.6686 134.754C27.1941 132.436 45.8041 101.881 46.1867 101.177C49.1483 102.143 52.7229 103.066 55.7331 103.844C56.9335 109.452 65.9004 148.857 70.5123 152.135C71.3557 152.755 72.6 152.755 73.9113 151.408C77.1895 148.04 81.8487 132.024 82.6504 129.542C83.7316 126.289 83.8711 126.526 87.1208 115.966C87.3638 115.025 91.1657 104.97 91.1657 104.97C93.3083 104.6 96.3006 104.048 101.108 102.842C105.531 109.804 112.635 119.748 119.013 125.048C119.219 125.181 119.219 125.181 119.013 125.048C119.838 125.582 120.275 126.377 124.808 128.873C125.615 129.322 132.436 133.372 137.468 134.872C146.486 137.563 145.783 134.692 144.309 130.298C141.161 120.574 133.879 91.1176 133.879 91.1176C140.156 87.6414 144.532 84.8385 149.801 81.2224C163.339 92.9881 168.772 90.1369 183.451 100.592C184.398 101.278 191.261 105.941 193.112 106.7C194.981 107.544 196.456 106.962 196.766 104.674C196.845 104.213 196.797 103.156 196.7 102.289C196.361 99.8728 194.718 91.782 193.329 87.3692C191.492 81.2752 189.314 75.2538 186.815 69.3902C185.511 66.2035 184.092 63.3081 182.229 60.4186C181.028 58.5429 179.808 56.5822 178.607 54.7064C178.449 54.3847 178.207 54.0812 178.134 53.7413C177.928 52.3635 180.047 48.9773 180.678 47.7758C181.11 46.8837 183.004 43.2789 182.446 42.332C183.283 43.7524 183.787 44.4444 184.654 45.5918C192.997 56.3366 214.375 49.095 208.552 34.3451C206.241 28.5301 202.223 27.6126 198.915 30.0092C196.535 31.7626 196.061 34.5301 196.51 37.4557C196.607 38.3236 197.924 38.6638 198.543 37.8203C198.877 37.3045 198.701 36.8978 198.507 35.162C198.332 31.0226 202.035 30.0524 203.886 30.8116C209.002 33.538 211.432 46.97 197.509 48.3504C195.585 48.4956 194.079 48.1068 192.332 47.4145C187.914 45.8718 185.778 42.9519 183.218 37.6345C183.248 37.3614 183.109 37.1246 182.884 36.9061C182.745 36.6693 182.69 36.4144 182.551 36.1777C184.907 28.9193 189.831 21.2003 190.519 12.7884C190.988 5.84514 187.894 1.35306 184.434 2.62678C182.704 3.26363 181.435 5.22372 180.555 6.92293C178.976 9.92686 178.538 12.8643 178.192 16.2267C177.814 19.8621 178.19 22.4477 178.577 27.1637C176.618 22.1621 173.949 17.5791 171.176 14.1735C170.915 13.785 170.12 12.9776 169.362 12.3401C166.279 9.97837 163.615 8.32685 161.684 10.5174ZM163.989 42.461C163.327 45.1799 158.453 45.2454 155.819 45.8092C155.809 37.4578 164.476 38.0912 163.989 42.461ZM27.7079 66.7413C28.6734 65.0239 31.7811 64.181 33.7409 66.6942C34.1595 67.4044 34.1654 67.8475 33.7888 68.9945C30.8511 69.801 26.888 69.1385 27.7079 66.7413ZM8.19262 51.5449C10.0761 43.3214 14.8112 39.2864 16.8554 44.2699C19.6088 52.5673 9.57896 65.9114 8.12781 68.2659C7.33445 61.2374 6.74055 57.6321 8.19262 51.5449ZM-19.8268 89.6232C-23.6134 86.8789 -25.3537 80.4085 -21.6264 77.478C-17.7536 75.2272 -12.1536 83.5375 -19.8268 89.6232ZM4.9342 72.8596C-20.2083 61.2671 -8.10706 40.9923 1.80479 63.2207C3.8066 67.5912 4.40081 69.9523 4.9342 72.8596ZM34.6965 104.792C34.6783 104.707 36.6644 99.0385 36.6462 98.9535C36.628 98.8685 36.6098 98.7836 36.5067 98.7168C36.9134 98.5409 37.2533 98.4681 37.3505 98.0918C37.3991 97.9037 37.3627 97.7337 37.3263 97.5638C37.4295 97.6306 37.5326 97.6974 37.6176 97.6792C36.8218 100.604 35.8134 104.197 35.7648 104.385C35.3399 104.476 35.1032 104.616 34.6965 104.792ZM30.2431 123.43C30.2249 123.345 30.2249 123.345 30.2431 123.43C30.3403 123.053 32.6123 114.569 32.7095 114.193C32.94 114.854 32.7095 114.193 33.1037 115.619C32.9337 115.655 32.782 115.777 32.7334 115.965C31.561 120.037 31.5246 119.867 30.577 122.914C30.5103 123.017 30.2431 123.43 30.2431 123.43ZM33.4797 116.96C33.5524 117.3 33.607 117.555 33.8497 117.859C33.4489 118.478 33.1332 119.079 32.7325 119.698C32.9573 118.672 33.2185 117.816 33.4797 116.96ZM29.6244 121.785C29.5881 121.615 29.4667 121.463 29.4303 121.293C30.0138 117.791 31.2834 113.343 31.2834 113.343C31.2653 113.258 31.2653 113.258 31.2471 113.173C31.4838 113.033 31.7205 112.894 32.0423 112.736C31.1734 116.565 30.6024 118.465 29.6244 121.785ZM28.684 120.297C28.3927 120.182 28.1378 120.237 27.8829 120.291C28.4783 117.675 28.7455 117.263 29.1528 114.598C29.5413 114.338 29.948 114.162 30.3365 113.901C29.3039 116.966 29.0973 118.076 28.684 120.297ZM26.6506 121.177C26.4139 121.317 26.1953 121.541 25.9586 121.681C26.3414 119.732 26.955 117.202 27.3257 115.612C27.5624 115.472 27.7991 115.333 27.9509 115.211C27.3918 117.997 27.1733 118.221 26.6506 121.177ZM24.6777 122.755C24.3741 122.997 24.0706 123.24 23.7671 123.483C24.551 119.671 24.1744 120.818 25.1282 116.971C25.4499 116.813 25.7535 116.57 26.0752 116.412C25.2367 119.969 24.9511 121.541 24.6777 122.755ZM22.6016 124.265C22.5166 124.284 22.2799 124.423 22.1949 124.441C22.0735 124.289 22.0372 124.12 21.9158 123.968C22.2196 122.481 21.8249 123.543 23.1798 117.832C23.6228 117.826 23.6896 117.723 24.0295 117.65C23.4463 119.908 23.5676 120.059 22.6016 124.265ZM19.0078 126.99C19.0928 126.971 19.0928 126.971 19.0078 126.99V126.99ZM17.9368 138.594C17.8518 138.612 17.7668 138.63 17.6819 138.648C21.1501 127.864 17.9917 137.605 20.3725 130.874C20.4939 131.026 20.3725 130.874 20.5788 131.008C19.3701 134.91 19.1456 134.692 17.9368 138.594ZM19.6203 129.436C19.7598 129.672 19.6748 129.691 19.7962 129.842C18.5996 133.387 18.8367 132.003 17.2999 136.864C17.2636 136.694 17.2272 136.524 17.2758 136.336C18.1807 133.921 17.9804 134.23 19.6203 129.436ZM17.1428 134.054C17.1369 133.611 17.0459 133.186 17.04 132.743C18.0907 129.763 18.5886 128.768 19.0016 127.791C19.038 127.961 19.038 127.961 19.1775 128.197C17.5984 132.446 17.3372 133.301 17.1428 134.054ZM16.8888 130.376C16.8709 129.047 16.8647 129.848 16.8528 128.962C17.2899 128.513 17.4416 128.391 17.8787 127.942C17.5812 128.628 17.1864 129.69 16.8888 130.376ZM16.2801 112.999C16.4319 112.878 17.0938 111.403 17.1424 111.215C16.7172 112.55 16.5592 113.473 16.3648 114.225C16.292 113.885 16.286 113.442 16.2801 112.999ZM20.6207 108.782C20.9117 110.142 20.748 109.377 20.9299 110.226L18.0565 120.884C17.2127 121.509 17.6012 121.248 16.9759 121.648C16.9941 121.733 19.6368 111.659 20.6207 108.782ZM21.2485 122.511C21.0908 122.189 20.9513 121.952 20.7936 121.631C20.9271 121.424 21.9418 117.03 21.9722 116.757C22.0268 117.012 22.0813 117.267 22.3058 117.486C21.7772 119.998 21.6132 120.478 21.2485 122.511ZM21.3846 112.351C21.5119 112.946 21.6574 113.626 21.6997 114.239C21.2441 115.847 20.3571 119.591 20.1627 120.344C19.92 120.04 19.6469 120.01 19.3919 120.065C21.0563 114.554 19.9933 117.892 21.3846 112.351ZM16.673 119.402C16.6307 118.789 16.5883 118.176 16.546 117.563C16.7708 116.538 17.1901 114.759 17.4331 113.819C17.4331 113.819 18.1194 111.628 19.3219 108.527C19.4737 108.405 19.7104 108.266 19.8622 108.144C18.7447 111.227 17.2685 116.787 16.673 119.402ZM17.5676 109.88C17.5494 109.795 17.5494 109.795 17.6343 109.777L17.5676 109.88ZM16.1895 111.33C16.1531 111.16 16.1349 111.075 16.1835 110.887C16.2503 110.784 16.4202 110.747 16.487 110.644C16.3534 110.851 16.3048 111.039 16.1895 111.33ZM15.3643 85.4682C15.5706 85.6018 15.7952 85.8204 16.0015 85.954C15.8434 86.8765 15.7462 87.2527 15.6186 87.9021C15.4371 85.8082 15.4553 85.8931 15.3643 85.4682ZM17.9979 87.3929C17.5063 87.587 17.0146 87.7811 16.5229 87.9752C16.6506 87.3258 16.7174 87.2226 16.845 86.5732C17.2576 86.8404 17.5853 87.1257 17.9979 87.3929ZM15.8595 95.6709C16.4179 95.3737 16.8914 95.0946 17.4681 94.8823C16.5572 96.8546 16.3991 97.7772 15.8586 99.4036C15.8589 98.1594 15.8592 96.9152 15.8595 95.6709ZM17.9108 96.1206C18.093 95.7261 18.5909 94.7309 18.3482 94.4273C18.7549 94.2514 19.0766 94.0937 19.4833 93.9178C19.3679 94.2091 16.9385 101.128 17.0962 101.449C16.7927 101.692 16.386 101.868 16.0825 102.111C17.1332 99.1308 17.4007 97.4739 17.9108 96.1206ZM20.7216 93.475C21.0433 93.3173 21.3832 93.2446 21.7049 93.0868C20.8241 96.0303 21.3343 94.6769 19.7612 99.3681C19.6944 99.4713 19.7126 99.5563 19.7308 99.6413C19.2755 100.005 18.802 100.284 18.3467 100.648C18.3467 100.648 20.6366 93.4932 20.7216 93.475ZM22.925 92.5591C23.7384 92.2073 23.7384 92.2073 24.0783 92.1345C23.5255 94.1191 22.1286 97.9728 22.0982 98.2459C21.7764 98.4036 21.303 98.6827 21.0662 98.8222C22.5848 93.8761 21.8134 96.0851 22.925 92.5591ZM25.0312 92.0195C25.3225 92.1348 25.547 92.3534 25.8383 92.4688C24.6477 96.4561 24.7631 96.1648 23.9855 99.175C23.8096 98.7683 23.5669 98.4647 23.2574 98.2644C24.8609 93.3001 25.3103 92.4929 25.0312 92.0195ZM27.7438 93.4828C27.5921 93.6042 24.9864 101.36 24.9378 101.548C24.7619 101.142 24.6042 100.82 24.5132 100.395C24.9867 100.116 25.1814 98.1192 26.8335 92.9667C27.143 93.1671 27.4343 93.2825 27.7438 93.4828ZM29.6186 96.0142C29.8005 96.864 30.0492 97.6106 30.231 98.4603C30.0307 98.7698 27.2246 106.835 27.0425 107.23C26.7756 106.398 26.7756 106.398 26.5088 105.567C27.3588 104.141 28.2703 99.6798 29.6186 96.0142ZM30.6434 99.9717C30.8011 100.293 30.9225 100.445 31.1106 100.494C29.6287 104.366 29.3675 105.221 28.5658 107.704C28.244 107.861 28.1591 107.879 27.7524 108.055C28.293 106.429 30.3458 100.657 30.6434 99.9717ZM32.1667 100.445C32.8283 100.215 31.845 100.603 32.5734 100.27C31.3038 104.718 31.0608 105.659 30.8178 106.599C30.8178 106.599 30.1743 106.915 29.8526 107.073C30.946 103.462 32.1667 100.445 32.1667 100.445ZM33.8966 99.8086C34.6432 99.56 34.8799 99.4204 35.5415 99.1899C34.752 101.314 34.0474 103.42 33.4278 105.508C32.9362 105.702 32.6145 105.859 32.1228 106.054C32.3172 105.301 32.87 103.316 33.8966 99.8086ZM39.4018 98.5415C39.0616 99.8584 38.035 103.366 37.1483 105.867C36.9905 105.545 36.9178 105.205 36.6933 104.986C37.1548 103.821 38.4367 99.0146 38.6311 98.2621C38.7342 98.3289 39.3168 98.5597 39.4018 98.5415ZM37.9852 108.531C37.8943 108.106 37.9488 108.361 37.682 107.53C38.1799 106.535 40.0387 100.271 40.2939 98.9726C40.5852 99.088 40.8765 99.2034 41.0828 99.337C41.186 99.4038 39.7283 103.804 37.9852 108.531ZM36.6587 97.3512C36.5738 97.3694 32.4037 99.0617 31.7239 99.2072C31.6694 98.9523 30.8933 95.7414 30.8387 95.4865C31.0573 95.262 31.0209 95.092 30.9663 94.8371C32.6291 95.5476 32.9204 95.663 36.6587 97.3512ZM29.1154 94.078C25.617 103.891 28.5017 96.6087 25.9265 104.092C25.7688 103.77 25.6778 103.345 25.5201 103.023C25.6355 102.732 28.5873 94.1021 28.6177 93.829C28.9272 94.0294 28.8241 93.9626 29.1154 94.078ZM23.3138 91.054C22.6522 91.2845 18.1604 93.1345 15.8416 94.3418C15.8604 91.9383 15.8303 90.9672 15.7456 89.7412C16.8625 89.1466 17.9976 88.6371 19.2541 88.2793C20.5952 89.1476 21.9727 90.1858 23.3138 91.054ZM19.0537 137.999C20.1167 134.662 20.5538 134.212 21.5499 130.978C21.9566 130.802 21.9566 130.802 22.2601 130.559C21.0332 134.376 22.0294 131.142 20.0979 137.065C19.8307 137.478 19.4422 137.738 19.0537 137.999ZM26.3208 129.601C26.2358 129.619 26.3208 129.601 26.3208 129.601C26.2358 129.619 26.3208 129.601 26.3208 129.601ZM21.7795 135.372L21.7127 135.475C22.4659 133.181 23.1096 131.621 23.6442 129.552C23.9477 129.309 23.711 129.449 24.0995 129.188C22.8362 132.835 22.5204 133.436 21.7795 135.372ZM23.6251 133.2C24.2993 131.367 24.7426 130.117 25.4168 128.284C25.5199 128.351 25.5563 128.521 25.6777 128.672C25.1067 130.572 24.6087 131.567 24.3294 132.338C24.129 132.647 23.8437 132.975 23.6251 133.2ZM27.1222 128.363C25.9392 126.572 25.4901 126.135 23.8875 127.367C22.9102 128.198 21.8842 129.218 21.174 129.636C19.269 126.134 20.01 124.198 16.7621 127.292C16.7624 126.048 16.7627 124.804 16.6781 123.578C17.1334 123.214 18.7541 122.067 19.2094 121.703C21.1686 126.705 21.4477 127.178 25.0414 124.454C25.1264 124.436 25.2114 124.418 25.3449 124.211C26.2555 123.483 27.0143 122.877 27.9249 122.148C28.4708 123.453 28.7923 124.54 29.1745 125.08C28.5066 126.112 27.8569 127.228 27.1222 128.363ZM35.0823 115.729C33.7123 108.913 33.008 109.774 30.1004 111.552C24.4368 114.986 27.0046 113.281 23.8784 115.283C23.6482 113.377 22.302 108.333 21.8351 106.567C21.8474 106.209 21.5683 105.735 21.192 105.638C20.3363 105.377 19.1404 106.433 16.0383 108.963C15.9295 107.209 15.9238 105.522 15.9 103.749C18.4191 102.233 21.0173 100.255 22.4741 99.5873C22.8745 100.213 25.131 105.773 25.6948 108.407C26.2708 110.683 27.0478 110.161 30.9084 108.269C37.0391 105.357 32.7901 107.51 35.546 105.854C36.371 107.633 36.5704 111.056 37.5111 111.299C36.6974 112.895 35.9991 114.2 35.0823 115.729ZM38.8287 109.151C39.6546 107.196 41.5253 101.819 42.0599 99.7499C42.2662 99.8835 42.4543 99.9321 42.7456 100.047C42.3205 101.383 41.6037 103.847 41.2453 105.079C40.7959 105.886 41.0267 105.303 38.8287 109.151ZM43.2671 102.069C43.4129 101.504 43.5769 101.025 43.8077 100.442C43.9958 100.491 44.099 100.558 44.2871 100.606C43.85 101.055 43.6011 101.553 43.2671 102.069ZM88.3433 105.485L88.3252 105.4L88.4101 105.382C88.3251 105.4 88.3433 105.485 88.3433 105.485ZM85.1933 105.715C85.4482 105.66 85.7213 105.69 85.9763 105.636C86.3946 107.59 86.4551 108.288 86.4306 109.004C85.9572 109.284 85.9572 109.284 85.7872 109.32C85.6176 108.112 85.3629 106.922 85.1933 105.715ZM87.3722 105.515C87.8272 106.395 87.6874 107.402 87.1531 108.228C87.1048 107.172 86.9411 106.407 86.7592 105.557C86.9292 105.521 87.2023 105.551 87.3722 105.515ZM84.4953 105.775C84.7499 106.965 84.9196 108.173 85.071 109.295C84.6947 109.198 84.6947 109.198 84.4884 109.065C84.4884 109.065 84.2037 106.904 84.0522 105.781C84.2404 105.83 84.3253 105.811 84.4953 105.775ZM83.1843 105.878C83.1843 105.878 83.2693 105.86 83.1843 105.878C83.2812 106.746 83.4631 107.596 83.56 108.464C82.9532 107.705 82.5286 106.551 83.1843 105.878ZM67.6093 109.922C67.5551 108.423 67.5369 108.338 67.5375 105.85C67.7257 105.898 67.8106 105.88 67.9988 105.929C68.2898 107.288 68.4108 108.684 67.6093 109.922ZM61.6686 105.417C61.5347 106.868 61.504 108.385 61.5582 109.884C60.8969 108.871 60.5391 107.614 61.1524 106.328C61.1161 106.158 61.4986 105.454 61.6686 105.417ZM62.4685 110.401C62.4446 108.628 62.524 106.923 62.6033 105.217C62.7914 105.266 62.9614 105.23 63.1495 105.278C63.1495 105.278 63.0084 111.263 63.0266 111.348C62.5108 111.014 62.5108 111.014 62.2863 110.795C62.3531 110.692 62.4199 110.589 62.4685 110.401ZM64.072 105.436C64.4301 105.448 64.7032 105.479 65.0613 105.491C64.9572 109.157 65.0601 110.468 65.1266 111.609C64.8716 111.664 64.7017 111.7 63.9673 111.591C64.0463 111.129 64.163 105.861 64.072 105.436ZM65.9838 105.649C66.1719 105.698 66.2569 105.68 66.4451 105.728C66.4448 106.972 66.3958 108.405 66.6865 111.009C66.5348 111.13 66.2131 111.288 66.0431 111.324C65.9826 110.626 65.9283 109.127 65.9838 105.649ZM68.5907 142.327C68.7058 143.28 68.7967 143.705 69.2758 145.113C69.1727 145.046 69.0877 145.064 69.0695 144.979C68.8572 144.403 68.7299 143.808 68.5176 143.231C68.5785 142.685 68.3781 142.994 68.5907 142.327ZM71.218 145.053C70.9029 143.165 70.7938 142.655 70.5451 141.909C71.7103 142.37 72.4321 144.082 71.218 145.053ZM69.7258 141.817C69.8713 142.497 69.9867 142.206 70.5078 145.471C70.3379 145.508 70.2347 145.441 70.0648 145.477C69.6038 144.154 69.3856 143.134 69.2159 141.926C69.7076 141.732 69.5376 141.769 69.7258 141.817ZM79.7556 128.473C79.962 128.607 80.1683 128.74 80.3746 128.874C80.326 129.062 80.2592 129.165 80.2106 129.353C79.7616 128.916 79.7252 128.746 79.7556 128.473ZM80.9638 127.059C80.7574 126.926 80.5511 126.792 80.363 126.744C80.5147 126.622 80.9092 126.805 81.0124 126.871C80.9456 126.974 80.9638 127.059 80.9638 127.059ZM79.8591 127.296C80.2717 127.563 80.2717 127.563 80.6662 127.745C80.5994 127.848 80.6358 128.018 80.569 128.121C80.4658 128.055 79.8651 127.739 79.7619 127.672C79.8287 127.569 79.8105 127.484 79.8591 127.296ZM81.2736 126.016C79.1799 124.953 77.9288 128.242 79.5186 129.857C79.6399 130.009 79.7431 130.076 79.8644 130.227C76.2382 141.934 73.9846 149.259 71.5809 150.485C70.8101 150.205 69.6941 147.067 69.4455 146.321C70.7138 146.849 71.9825 146.133 72.5958 144.847C72.778 144.452 72.8206 143.821 72.6933 143.226C72.5478 142.546 71.9229 141.703 71.2008 141.235C70.3937 140.786 68.9613 140.737 68.2025 141.344C67.9839 141.568 68.0021 141.653 67.9353 141.756C66.6193 137.683 62.9013 127.371 58.009 104.512C58.8465 104.688 59.5809 104.798 60.4184 104.974C56.8482 110.715 65.4289 116.343 68.8473 110.724C69.3634 109.814 69.6732 108.77 69.6249 107.714C69.6857 107.167 69.5584 106.573 69.4311 105.978C73.3215 106.3 78.177 106.15 82.0432 105.944C81.1869 108.172 84.0084 111.389 86.5457 109.957C83.7459 117.222 84.9481 115.365 81.2736 126.016ZM128.019 128.097C128.086 127.994 128.171 127.975 128.238 127.872C128.171 127.975 128.189 128.06 128.122 128.164C128.122 128.164 128.122 128.164 128.019 128.097ZM132.574 115.747C132.811 114.363 132.836 113.647 133.656 111.25C133.625 111.523 133.515 114.746 133.655 114.982C133.897 115.286 134.407 115.177 134.517 114.442C134.559 113.811 134.645 112.549 134.693 112.361C134.681 112.719 134.644 115.037 134.784 115.274C134.256 115.298 133.679 115.51 132.574 115.747ZM117.503 120.483C117.418 120.501 117.418 120.501 117.503 120.483C117.788 120.155 119.397 116.878 119.665 116.466C119.142 118.177 119.337 117.425 118.766 119.324C118.225 119.706 117.855 120.052 117.503 120.483ZM122.524 113.632C123.137 113.59 123.75 113.547 124.345 113.42C124.108 113.56 123.993 113.851 123.792 114.16C123.246 114.1 123.082 114.579 122.177 115.75C122.39 115.083 122.372 114.998 122.451 114.536C122.481 114.263 122.154 113.978 121.832 114.136C121.443 114.397 120.812 115.598 120.545 116.011C120.624 115.55 121.134 114.196 121.043 113.771C123.119 113.505 122.779 113.578 122.524 113.632ZM135.223 107.36C135.241 107.445 135.277 107.614 135.295 107.699C135.162 107.906 135.168 108.349 135.137 108.622C134.585 108.118 134.409 108.956 134.196 109.623C134.142 109.368 133.935 109.235 133.765 109.271C134.354 108.701 134.64 108.373 135.223 107.36ZM132.873 110.084C132.94 109.981 133.092 109.86 133.177 109.841C133.128 110.03 132.946 110.424 132.915 110.697C132.964 110.509 132.909 110.254 132.873 110.084ZM129.334 113.063C129.091 112.76 128.563 112.784 128.381 113.178C128.12 112.79 127.507 112.832 127.24 113.245C126.955 113.573 126.772 113.967 126.487 114.295C126.342 113.615 125.759 113.384 125.322 113.833C125.164 113.511 125.146 113.426 124.94 113.293C125.619 113.147 128.612 112.596 131.234 111.146C131.119 111.437 131.07 111.625 130.955 111.917C130.299 111.346 129.68 112.189 129.334 113.063ZM118.876 116.101C119.277 114.238 118.567 113.413 116.247 117.108C116.369 116.016 116.509 115.008 115.756 114.814C116.248 114.62 118.864 113.971 120.072 113.801C119.774 114.487 119.009 115.895 118.876 116.101ZM113.765 116.307C114.032 115.894 114.724 115.39 115.198 115.111C114.882 115.712 114.621 116.568 114.493 117.217C114.251 116.914 114.008 116.61 113.765 116.307ZM118.056 116.01C117.752 117.497 117.091 118.972 116.829 119.828C116.605 119.609 116.362 119.305 116.138 119.087C116.617 118.007 117.285 116.975 118.056 116.01ZM120.884 117.182C120.672 117.85 120.672 117.85 120.538 118.056C120.453 118.074 120.453 118.074 120.386 118.178C120.502 117.886 120.684 117.492 120.884 117.182ZM123.385 115.581C123.288 115.957 123.282 116.758 123.44 117.08C122.778 117.31 122.438 117.383 122.031 117.559C122.062 117.286 123.1 115.908 123.385 115.581ZM124.217 115.314C124.314 114.937 124.429 114.646 124.63 114.337C124.648 114.422 124.636 114.78 124.605 115.053C124.356 115.55 124.095 116.406 124.441 116.777C124.356 116.795 124.186 116.831 124.101 116.849C124.217 116.558 124.168 115.502 124.217 115.314ZM125.443 115.229C125.576 115.023 125.625 114.835 125.759 114.628C125.928 115.836 125.655 115.806 125.594 116.352C125.424 116.388 125.339 116.407 125.169 116.443C125.388 116.218 125.431 115.587 125.443 115.229ZM127.828 113.919C127.865 114.089 127.901 114.259 127.889 114.617C127.725 115.096 127.579 115.661 127.603 116.189C127.075 116.213 126.802 116.182 126.547 116.237C126.59 115.606 127.428 114.538 127.828 113.919ZM128.642 114.811C128.708 114.708 128.69 114.623 128.757 114.52C128.799 115.133 128.641 116.055 129.169 116.031C129.715 116.092 129.57 115.412 129.728 114.49C129.874 113.925 130.086 113.258 130.42 112.742C130.548 113.337 130.286 115.437 130.244 116.068C129.206 116.201 129.546 116.128 128.489 116.177C128.538 115.989 128.629 115.169 128.642 114.811ZM131.367 113.428C131.561 112.675 131.64 112.214 132.12 111.134C132.108 111.492 131.652 115.589 131.894 115.892C131.64 115.947 131.385 116.001 131.045 116.074C131.191 114.265 131.464 113.052 131.367 113.428ZM135.853 109.891C135.889 110.061 135.926 110.23 135.877 110.419C135.835 109.806 135.968 112.088 136.047 112.871C136.034 113.229 135.986 113.417 136.313 113.702C136.435 113.854 136.69 113.799 136.823 113.593C136.841 113.678 136.86 113.763 136.878 113.848C136.678 114.158 135.712 114.631 135.476 114.77C135.591 114.479 135.823 110.164 135.853 109.891ZM139.704 123.73C139.601 123.663 139.412 123.614 139.243 123.651C139.291 123.463 139.322 123.189 139.2 123.038C139.285 123.019 139.352 122.916 139.437 122.898C139.576 123.135 139.631 123.39 139.704 123.73ZM136.08 124.239C136.25 124.202 136.42 124.166 136.657 124.026C136.505 124.148 136.353 124.269 136.22 124.475C136.202 124.39 136.183 124.305 136.08 124.239ZM133.968 125.579C133.998 125.306 134.029 125.033 133.889 124.796C134.551 124.566 134.296 124.621 134.976 124.475C134.623 124.906 134.253 125.252 133.968 125.579ZM132.117 126.065C131.57 126.004 131.066 126.556 130.714 126.987C130.66 126.732 130.69 126.459 130.551 126.222C131.583 125.646 131.819 125.506 132.651 125.239C132.432 125.464 132.317 125.755 132.117 126.065ZM133.088 126.034C133.039 126.223 132.778 127.078 132.644 127.285C132.693 127.096 132.656 126.926 132.705 126.738C132.754 126.55 132.887 126.344 133.088 126.034ZM132.238 127.46C132.238 127.46 132.256 127.545 132.238 127.46V127.46ZM129.263 128.097C129.197 128.2 129.063 128.407 128.996 128.51C129.075 128.048 129.257 127.654 129.525 127.241C129.458 127.344 129.227 127.927 129.263 128.097ZM130.58 128.437C130.848 128.025 131.066 127.8 131.436 127.454C131.005 128.346 130.963 128.978 130.853 129.712C130.75 129.645 130.562 129.596 130.459 129.53C130.453 129.087 130.501 128.898 130.58 128.437ZM135.346 125.373C134.641 126.235 133.348 127.667 133.651 128.669C133.33 128.826 133.178 128.948 132.771 129.124C133.348 127.667 133.142 127.534 135.346 125.373ZM137.555 124.901C137.773 124.676 137.907 124.47 138.211 124.227C137.7 125.58 136.456 126.824 137.008 127.328C136.753 127.383 136.516 127.522 136.346 127.559C136.929 126.545 137.361 125.653 137.555 124.901ZM137.403 123.778L137.488 123.759C137.488 123.759 137.488 123.759 137.403 123.778ZM139.273 124.622C139.279 125.065 139.005 126.279 139.181 126.685C138.586 126.813 138.416 126.849 137.84 127.061C138.356 126.151 137.998 126.139 139.273 124.622ZM140.062 124.986C140.165 125.053 140.165 125.053 140.183 125.138C140.341 125.46 140.432 125.884 140.589 126.206C140.183 126.382 140.098 126.4 140.013 126.418C139.994 126.333 140.013 125.174 140.062 124.986ZM131.645 92.3067C131.809 93.0714 132.355 95.6207 132.518 96.3855C129.361 99.9049 124.317 102.495 119.874 104.157C119.874 104.157 119.978 100.491 120.118 99.4839C121.191 103.253 120.87 103.411 121.567 103.35C121.992 103.259 121.847 102.58 121.786 101.882C121.483 99.6359 121.459 99.1079 121.496 98.0336C121.939 99.2719 122.321 101.056 122.593 102.331C122.703 102.841 123.467 102.677 123.358 102.167C123.225 101.129 122.879 99.5149 122.789 97.8458C123.037 98.5924 123.959 101.239 123.959 101.239C124.275 101.882 124.851 101.67 124.845 101.227C124.743 99.9159 124.294 98.2346 124.039 97.0449C124.494 97.9251 125.186 99.91 125.295 100.42C125.422 101.015 125.883 101.094 126.102 100.869C126.405 100.626 125.933 98.4171 125.842 97.9922C125.696 97.3124 125.636 96.6144 125.557 95.8315C125.521 95.6615 125.587 95.5583 125.551 95.3884C126.243 96.129 126.673 97.7254 126.479 97.2337L126.497 97.3187C126.867 98.217 126.988 99.613 127.583 99.4857C128.348 99.322 127.444 98.0047 127.153 95.4009C127.208 95.6558 127.171 95.4859 127.117 95.231C127.572 96.1111 127.723 97.234 127.923 98.1687C127.978 98.4237 128.069 98.8485 128.275 98.9821C128.585 99.1825 128.973 98.9216 128.9 98.5817C128.694 97.2039 128.318 97.1067 128.41 95.0431C129.125 97.556 128.888 98.9398 129.653 98.7761C130.333 98.6306 129.787 98.5698 130.079 94.9525C130.333 96.1422 130.242 96.9615 130.855 96.9192C131.298 96.9132 131.377 96.452 131.371 96.0089C131.353 95.9239 131.335 95.8389 131.317 95.754C131.681 96.2093 132.355 95.6207 131.991 95.1654C131.881 94.6556 131.433 92.9742 131.22 92.3976C131.305 92.3794 131.475 92.343 131.645 92.3067ZM107.413 106.558C107.371 104.7 107.857 102.819 108.464 101.089C108.537 101.429 108.573 101.599 108.598 102.127C107.662 107.304 109.956 108.057 109.399 102.134C109.447 101.945 109.478 101.672 109.526 101.484C109.854 103.014 109.587 103.426 109.519 104.774C109.495 105.49 109.628 106.528 110.187 106.231C110.575 105.97 110.472 105.903 110.497 105.187C110.539 103.311 110.406 103.518 110.789 101.569C110.837 101.381 110.819 101.296 110.868 101.108L111.565 106.025C109.471 106.206 108.839 106.163 107.413 106.558ZM105.951 101.805C106 101.617 106 101.617 106.067 101.514C106.364 102.072 106.412 103.128 106.521 103.638L106.54 103.723C106.54 103.723 106.618 104.506 106.666 106.806C106.581 106.824 106.581 106.824 106.496 106.843C106.375 106.691 106.357 106.606 106.236 106.454C106.278 105.823 106.333 103.589 105.951 101.805ZM106.917 101.332C107.171 101.277 107.426 101.223 107.663 101.083C107.499 101.563 107.335 102.042 107.189 102.606C107.183 102.163 107.111 101.823 106.917 101.332ZM105.471 105.374C105.368 105.307 105.35 105.222 105.313 105.052C105.289 104.524 105.35 103.978 105.429 103.516C105.423 104.318 105.447 104.846 105.471 105.374ZM110.006 100.404C110.091 100.386 110.261 100.349 110.346 100.331C110.279 100.434 110.249 100.707 110.182 100.811C110.024 100.489 110.024 100.489 110.006 100.404ZM117.49 98.0023C117.508 98.0873 117.442 98.1904 117.442 98.1904C117.442 98.1904 117.423 98.1055 117.49 98.0023ZM114.455 100.429C114.382 100.089 114.255 99.4946 114.097 99.1728C114.437 99.1001 114.674 98.9606 115.014 98.8878C114.85 99.3673 114.601 99.8649 114.455 100.429ZM112.616 100.556C112.689 100.896 113.003 105.272 113.179 105.679C112.499 105.824 113.009 105.715 112.414 105.843C112.372 103.985 112.549 101.904 112.616 100.556ZM113.812 100.745C114.127 102.632 114.12 103.434 114.29 104.641C114.381 105.066 114.994 105.024 115.006 104.666C115.037 104.393 115 104.223 114.946 103.968C114.685 102.335 114.94 101.036 115.566 99.3917C116.045 102.044 115.522 105 116.487 104.527C116.809 104.369 116.736 104.029 116.663 103.689C116.609 102.19 116.542 102.293 116.64 100.673C116.701 100.126 116.792 99.307 116.804 98.9489C117.089 101.11 117.306 104.618 117.701 104.8C116.529 105.14 115.049 105.279 113.926 105.43C113.968 104.799 113.441 103.579 113.812 100.745ZM116.167 98.4632C116.167 98.4632 116.185 98.5482 116.167 98.4632C116.167 98.4632 116.185 98.5482 116.167 98.4632ZM118.011 102.512C117.951 101.814 117.848 100.503 118.127 98.488C118.291 99.2528 118.8 104.121 119.042 104.424C118.957 104.442 118.957 104.442 119.042 104.424C118.721 104.582 118.381 104.655 118.126 104.709C118.278 104.588 118.047 102.682 118.011 102.512ZM121.046 102.573C121.426 109.335 121.046 102.573 121.046 102.573V102.573ZM121.63 96.5831C121.8 96.5467 121.885 96.5285 122.037 96.4072C121.97 96.5103 121.994 97.0384 122.012 97.1234C121.909 97.0566 121.751 96.7348 121.63 96.5831ZM122.783 96.1585C122.868 96.1403 122.953 96.1221 122.953 96.1221C122.989 96.2921 123.008 96.3771 123.044 96.547C123.008 96.3771 122.904 96.3103 122.783 96.1585ZM125.97 94.8544C126.055 94.8362 126.207 94.7149 126.292 94.6967C126.243 94.8848 126.279 95.0548 126.316 95.2247C126.194 95.0729 126.073 94.9212 125.97 94.8544ZM127.257 94.2235C127.427 94.1871 127.493 94.084 127.663 94.0476C127.597 94.1507 127.566 94.4239 127.518 94.612C127.481 94.442 127.463 94.3571 127.257 94.2235ZM129.375 93.3258C129.345 93.5989 129.223 94.6913 129.193 94.9644C129.102 94.5395 128.871 93.8779 128.477 93.6958C128.799 93.538 129.138 93.4653 129.375 93.3258ZM124.58 95.4185C124.549 95.6916 124.568 95.7766 124.646 96.5596C124.47 96.1529 124.331 95.9161 124.173 95.5944C124.343 95.558 124.513 95.5217 124.58 95.4185ZM120.731 96.9531C120.652 97.4143 120.701 98.4704 120.707 98.9135C120.616 98.4886 120.282 97.7602 119.857 97.8511C119.432 97.9421 119.396 99.0163 119.371 99.7325C119.31 100.279 119.292 100.194 119.25 100.825C118.965 98.6642 118.977 98.3061 118.662 97.6627C119.323 97.4322 120.07 97.1836 120.731 96.9531ZM112.009 99.7975C111.912 100.174 111.839 101.078 111.827 101.436C111.681 100.756 111.675 100.313 111.414 99.9248C111.432 100.01 111.924 99.8157 112.009 99.7975ZM103.384 102.266C103.979 102.138 104.555 101.926 105.065 101.817C104.786 102.588 104.555 103.17 104.464 103.99C104.148 103.346 103.766 102.806 103.384 102.266ZM107.297 108.093C107.449 107.972 107.431 107.887 107.413 107.802C109.841 107.104 122.301 108.437 132.852 98.3581C133.628 101.569 133.876 102.316 134.756 105.593C133.735 108.3 130.573 110.132 127.859 111.157C122.973 112.825 115.708 112.514 113.11 115.736C111.047 113.156 110.422 112.312 107.297 108.093ZM118.091 121.157C118.614 120.69 118.547 120.793 118.832 120.465C119.208 120.562 119.324 120.271 119.524 119.962C124.805 115.988 131.566 119.34 137.375 115.341C138.309 118.874 138.527 119.894 139.061 121.557C135.85 123.577 130.296 123.788 127.212 127.647C122.952 125.182 121.235 124.217 118.091 121.157ZM143.458 134.212C141.164 134.703 134.045 131.339 132.656 130.659C132.552 130.592 132.449 130.526 132.346 130.459C136.286 128.105 139.521 127.857 140.996 127.274C142.324 130.989 143.737 133.442 143.458 134.212ZM180.335 64.0233C180.268 64.1265 180.183 64.1447 180.031 64.266C180.061 63.9929 180.092 63.7198 180.122 63.4467C180.28 63.7684 180.335 64.0233 180.335 64.0233ZM178.392 65.3278C178.508 62.548 178.678 61.2674 178.806 59.3738C179.231 60.5271 179.073 60.2054 179.498 61.3587C179.394 62.5361 179.291 63.7135 179.187 64.891C178.714 65.17 178.866 65.0487 178.392 65.3278ZM178.036 57.8502C177.962 61.243 177.652 62.2868 177.53 65.8677C177.208 66.0254 176.82 66.2863 176.498 66.4441C177.033 63.1303 177.197 62.6509 177.654 57.31C177.775 57.4617 177.914 57.6985 178.036 57.8502ZM179.136 75.0328C179.694 75.9798 179.955 76.3683 180.216 76.7568C179.712 77.309 179.324 77.5699 178.698 77.9703C178.923 76.9446 179.027 75.7672 179.136 75.0328ZM177.964 77.8609C178.013 77.6727 177.782 78.2553 178.006 78.4739C177.77 78.6134 177.448 78.7711 177.229 78.9956C177.509 76.9807 177.43 77.4419 177.814 73.0053C178.074 73.3938 178.232 73.7156 178.493 74.1041C178.493 74.1041 178.013 77.6727 177.964 77.8609ZM173.105 91.6978C173.756 88.0927 173.883 87.4434 174.181 85.5134C174.442 85.9019 174.636 86.3935 174.897 86.7821C174.745 88.1476 174.611 89.5982 174.374 90.9819C173.985 91.2428 173.682 91.4855 173.293 91.7464C173.208 91.7646 173.123 91.7828 173.105 91.6978ZM175.491 87.899C175.752 88.2875 175.77 88.3724 176.535 89.453C176.535 89.453 175.236 90.4419 175.151 90.4601C175.491 87.8989 175.23 89.9989 175.491 87.899ZM176.242 70.2313C176.54 70.7897 176.819 71.2632 177.116 71.8216C176.751 76.3432 176.55 77.8969 176.282 79.5538C174.88 80.476 175.42 80.0938 174.965 80.4578C176.229 73.0778 175.865 72.6225 176.242 70.2313ZM177.095 56.363C176.59 61.8921 175.721 66.9658 175.721 66.9658C175.047 67.5544 175.193 68.2342 175.648 69.1144C175.502 69.6788 175.368 71.1293 175.307 71.6755C175.082 73.9454 175.319 73.8059 174.036 81.1009C172.671 82.1931 172.816 82.8729 173.605 84.4814L172.334 91.4184C171.94 91.2362 171.546 91.054 171.169 90.9568C171.57 89.0937 171.837 88.681 171.425 88.4138C172.39 87.9407 171.747 87.0119 171.189 86.065C171.359 86.0286 171.425 85.9254 171.389 85.7555C171.639 82.7694 172.027 81.2643 172.137 80.5299C172.137 80.5299 172.392 79.2312 172.617 78.2055C174.171 77.1619 175.731 76.5615 173.826 74.3032C173.856 74.0301 175.212 63.3423 175.073 63.1056C175.898 62.3956 176.232 61.8798 175.413 60.5444C175.413 60.5444 175.462 59.112 176.106 55.0639C176.246 55.3007 176.974 56.2112 177.095 56.363ZM169.695 90.2949C169.792 89.9186 170.041 89.421 169.731 89.2207C170.138 89.0447 170.526 88.7839 170.933 88.6079C170.806 89.2573 170.678 89.9067 170.55 90.5561C170.192 90.5439 169.901 90.4285 169.695 90.2949ZM168.444 89.8516C168.936 89.6575 168.936 89.6575 169.088 89.5361C169.039 89.7242 168.991 89.9124 168.942 90.1005C168.821 89.9487 168.633 89.9002 168.444 89.8516ZM170.752 85.2698C170.576 84.8631 170.315 84.4746 170.157 84.1529C170.407 82.411 170.577 81.1304 171.014 79.4372C171.403 79.1763 171.014 79.4372 171.858 78.8122C171.536 80.2142 171.086 82.2655 170.752 85.2698ZM169.496 83.1391C169.199 82.5807 168.713 81.9736 168.501 81.397C168.586 81.3788 169.934 80.2016 170.001 80.0985C169.794 81.2091 169.684 81.9435 169.496 83.1391ZM171.72 71.1102C171.599 70.9584 171.423 70.5518 171.302 70.4C171.448 68.5914 171.636 67.3957 171.825 66.2001C172.128 65.9574 172.432 65.7147 172.717 65.3871C172.006 68.2941 171.787 69.7628 171.72 71.1102ZM170.64 69.3862C170.361 68.9128 169.84 68.1358 169.84 68.1358C170.04 67.8263 170.714 67.2377 170.932 67.0132C170.841 67.8325 170.726 68.1238 170.64 69.3862ZM173.494 64.8653C173.476 64.7803 173.476 64.7803 173.458 64.6953C173.743 64.3676 174.132 64.1068 174.417 63.7791C173.444 71.2745 174.429 64.6652 173.201 73.4594C172.454 72.4638 172.715 72.8524 172.333 72.3121C172.765 67.6873 173.494 64.8653 173.494 64.8653ZM174.339 61.7519C174.339 61.7519 174.357 61.8369 174.339 61.7519C174.339 61.7519 174.357 61.8369 174.339 61.7519ZM173.249 75.7597C173.249 75.7597 173.267 75.8447 173.249 75.7597C173.182 75.8629 173.182 75.8629 173.249 75.7597C173.267 75.8447 173.249 75.7597 173.249 75.7597ZM175.135 56.3382C175.013 57.4307 174.886 58.0801 174.715 59.3607C174.072 58.4319 174.351 58.9054 173.848 58.2134C174.334 57.5762 174.752 57.0422 175.135 56.3382ZM163.727 69.8883C163.635 73.1961 162.887 80.91 161.532 86.621L161.035 86.372C161.934 81.0251 162.317 80.3212 163.138 70.4587C163.642 69.9065 163.442 70.216 163.727 69.8883ZM160.209 85.8377C160.617 81.9291 161.17 79.9446 161.894 71.7026C162.046 71.5812 162.264 71.3567 162.416 71.2354C161.509 81.1161 160.416 85.9713 160.416 85.9713C160.312 85.9045 160.209 85.8377 160.209 85.8377ZM158.886 85.0544C159.439 83.0699 160.37 74.9615 160.546 72.8797C160.698 72.7584 160.917 72.5338 161.068 72.4125C160.673 77.2072 159.505 85.4551 159.505 85.4551C159.299 85.3216 159.093 85.188 158.886 85.0544ZM151.641 79.8512C154.257 77.9582 156.637 76.2048 159.265 73.9537C158.943 76.5998 158.456 80.9696 157.77 84.4047C154.693 82.486 153.297 81.3629 151.641 79.8512ZM162.527 87.1189C163.749 81.6143 164.558 74.5983 164.687 68.9721C168.001 65.7743 170.223 63.6992 172.98 59.5545C173.24 59.943 174.041 61.1935 174.235 61.6851C173.258 62.5164 170.587 65.3987 170.016 66.054C167.867 68.4691 168.407 68.0869 169.457 70.0839C170.524 72.166 170.7 72.5727 171.38 73.6714C171.368 74.0295 171.422 74.2844 171.762 74.2117C171.902 74.4484 172.891 75.7475 172.945 76.0024C172.49 76.3665 169.691 78.6539 169.825 78.4476C165.764 81.894 166.875 80.8564 170.339 87.491C169.695 87.8065 168.074 88.9532 166.903 89.2928C163.935 87.884 163.814 87.7322 162.527 87.1189ZM186.717 75.9876C186.789 76.3275 186.929 76.5642 187.002 76.9041C186.406 79.5199 185.288 83.847 184.845 86.3414C184.796 86.5296 184.547 88.2714 184.51 88.1015C184.529 88.1864 184.444 88.2046 184.529 88.1864C184.498 88.4596 184.352 89.024 184.383 88.7509C184.079 90.2378 182.681 96.5799 182.487 97.3324L182.384 97.2657C182.718 96.7498 185.756 80.6365 186.717 75.9876ZM189.355 83.3321C188.201 87.4894 185.795 98.6685 185.703 99.4879C185.582 99.3361 185.394 99.2875 185.272 99.1357C185.43 98.2132 185.57 97.2057 185.728 96.2832C185.504 97.3089 188.742 82.1303 188.803 81.584C188.93 82.1789 189.143 82.7555 189.355 83.3321ZM184.138 98.4011C184.223 98.3829 188.118 80.0423 188.099 79.9573C188.118 80.0423 188.118 80.0422 188.136 80.1272L184.933 95.4758C184.946 95.1177 184.459 98.2433 184.362 98.6196C184.344 98.5346 184.241 98.4678 184.138 98.4011ZM183.191 97.715C185.828 85.9532 185.737 85.5284 185.737 85.5284C185.737 85.5284 185.737 85.5284 185.719 85.4434C185.737 85.5284 186.849 80.7581 187.444 78.1424C187.463 78.2274 187.481 78.3123 187.517 78.4823C184.218 94.2072 183.641 95.6637 183.416 97.9335C183.397 97.8486 183.294 97.7818 183.191 97.715ZM194.314 104.843C194.314 104.843 194.399 104.825 194.314 104.843C194.314 104.843 194.399 104.825 194.314 104.843ZM194.314 104.843C193.167 104.467 187.251 100.49 186.425 99.9554C187.052 95.8223 189.621 85.4079 189.798 84.5704C190.901 88.0666 194.698 101.651 194.314 104.843ZM186.201 74.4094C186.122 74.8707 185.915 75.9813 185.994 75.5201L181.71 96.61C180.127 95.4382 176.74 93.3192 174.889 92.5601C178.944 89.9148 178.738 89.7813 177.713 88.3122C176.184 86.1512 174.801 83.4257 174.655 82.7459C175.815 81.5202 179.894 79.4029 181.223 78.1408C182.686 76.6724 182.007 76.8179 179.289 72.423C179.009 71.9496 176.953 68.5684 176.825 67.9736C178.191 66.8815 181.675 66.1358 181.767 64.0722C182.465 65.2559 183.077 66.4578 183.605 67.6779C184.102 69.1711 186.402 72.8557 186.201 74.4094ZM181.064 11.7907C181.544 9.46622 182.588 6.04337 184.476 4.48401C186.977 2.88232 191.261 8.36399 186.579 20.1192C183.858 26.9222 182.601 28.5242 181.295 31.5586C181.219 23.3103 179.653 20.9793 181.064 11.7907ZM178.939 37.5727L178.921 37.4878C178.921 37.4878 178.921 37.4878 178.939 37.5727ZM177.872 33.0023C174.316 29.6754 167.162 21.1644 165.53 18.9365C164.347 17.1458 163.091 15.0151 162.825 12.9394C162.771 11.4402 163.293 10.973 164.749 11.55C171.528 14.9869 175.628 25.8399 177.872 33.0023Z" fill="#EFE2DA"/>
<path d="M82.4548 113.677C80.295 110.229 74.4258 111.041 73.4472 116.849C72.2739 124.654 82.0514 125.494 83.2852 118.387C83.352 118.284 83.4188 118.18 83.3824 118.01C83.4432 117.464 83.5831 116.457 83.4558 115.862C83.468 115.504 82.8493 113.859 82.4548 113.677ZM82.2175 116.305C81.0222 114.872 79.8692 114.052 78.3704 112.862C80.7679 112.438 82.1814 114.89 82.2175 116.305ZM82.0046 118.216C81.4342 117.628 79.3591 115.406 77.1321 113.305C77.2171 113.287 77.2171 113.287 77.3021 113.269C78.2851 114.125 80.0875 115.072 82.0836 117.755C82.0168 117.858 82.0532 118.028 82.0046 118.216ZM74.8729 118.943C75.3583 119.55 75.9651 120.309 77.0209 121.505C75.7889 121.146 75.0608 120.236 74.8729 118.943ZM78.4228 121.827C78.3864 121.657 74.8187 117.444 74.8187 117.444C74.8005 117.359 74.9159 117.068 74.8977 116.983C77.446 120.17 77.4765 119.897 78.7809 121.839C78.5928 121.79 78.8659 121.821 78.4228 121.827ZM79.7642 121.451C78.5448 119.49 77.4949 118.737 75.2561 115.751C75.3047 115.562 75.3533 115.374 75.4201 115.271C80.2317 120.729 79.831 121.348 80.4744 121.032C80.3227 121.154 80.001 121.311 79.7642 121.451ZM80.8447 120.686C81.2091 119.897 76.7129 115.083 76.0212 114.343C76.2883 113.93 76.088 114.24 76.3733 113.912C78.3939 115.879 78.7216 116.164 80.7786 118.301C81.4521 118.957 81.3671 118.975 81.3671 118.975C81.4885 119.127 81.5917 119.193 81.7798 119.242C81.3486 120.134 81.1301 120.359 80.8447 120.686Z" fill="#EFE2DA"/>
<path d="M69.3179 121.643C69.0633 120.453 68.2502 119.561 67.17 119.081C63.3953 117.223 61.6513 125.683 66.5432 125.703C69.2198 125.752 69.961 122.572 69.3179 121.643ZM67.2233 124.313C67.6667 123.063 67.7457 122.602 68.1405 121.54C68.1587 121.625 68.1405 121.54 68.1951 121.794C68.0856 122.529 68.5952 123.664 67.2233 124.313ZM66.3808 119.961C66.2472 120.167 65.2996 123.214 65.1842 123.505C64.6261 122.558 64.8634 119.93 66.3808 119.961ZM65.876 124.246C66.3316 122.638 67.1029 120.429 67.1029 120.429C67.4124 120.629 67.3092 120.562 67.6369 120.847C67.3152 121.005 66.4526 124.034 66.2522 124.343C65.9791 124.313 66.0641 124.295 65.876 124.246Z" fill="#EFE2DA"/>
<path d="M73.1888 128.101C71.447 127.852 69.4377 129.26 68.8062 130.461C67.9075 132.075 67.7125 135.316 69.5995 137.49C70.898 138.989 75.0007 139.888 76.6585 136.423C76.6403 136.338 76.7252 136.32 76.7071 136.235C77.5085 134.997 77.6424 133.547 77.2482 132.12C76.8541 130.694 75.5801 128.478 73.1888 128.101ZM75.7917 131.543C74.4506 130.675 73.2854 130.213 71.8107 129.551C73.0126 128.939 74.724 129.461 75.7917 131.543ZM71.0155 129.988C74.4444 131.476 76.1981 132.611 76.1981 132.611C76.2527 132.866 76.3254 133.206 76.295 133.479C74.3045 132.484 72.399 131.47 70.2749 130.68C70.4753 130.37 70.7788 130.128 71.0155 129.988ZM69.7942 135.493C71.7848 136.489 70.6863 135.924 73.4354 137.557C71.6145 137.769 70.4797 137.035 69.7942 135.493ZM74.6068 137.218C74.4551 137.339 74.3701 137.357 74.2001 137.394C74.1578 136.781 70.0068 134.825 69.5092 134.576C69.4547 134.321 69.4728 134.406 69.4851 134.048C69.9827 134.297 74.789 136.823 74.8922 136.89C74.8072 136.908 74.6736 137.115 74.6068 137.218ZM75.645 135.84C75.645 135.84 75.5114 136.047 75.3111 136.356C74.2127 135.791 72.3921 134.759 69.4246 133.35C69.455 133.077 69.4186 132.907 69.449 132.634C72.6715 133.988 75.7786 135.634 75.7786 135.634C75.7786 135.634 75.7118 135.737 75.645 135.84ZM76.0762 134.948C75.5058 134.359 70.396 132.076 69.6252 131.797C69.6738 131.608 69.7224 131.42 69.856 131.214C72.7326 132.198 75.2571 133.613 76.2706 134.196C76.2038 134.299 76.3069 134.366 76.0762 134.948Z" fill="#EFE2DA"/>
<path d="M1710.4 13.1755C1706.5 10.9755 1698.8 20.8755 1696.3 24.6755C1696.4 18.8755 1696.2 9.27548 1692.5 4.77548C1690.9 2.87548 1688.7 2.07548 1687.2 3.77548C1685.9 5.17548 1685.9 7.17548 1686.2 8.97548C1687.2 15.7755 1689.2 21.8755 1691.4 28.3755C1685.4 27.1755 1678.9 32.8755 1674.2 27.5755C1676.4 27.2755 1679.2 26.3755 1681.1 24.9755C1682.4 23.9755 1683.2 22.5755 1683.2 20.6755C1683.2 18.6755 1681.3 16.7755 1679.6 16.2755C1677.2 15.5755 1674.6 16.0755 1672.9 17.9755C1671.9 19.1755 1671.4 20.7755 1671.1 22.2755C1670.9 23.1755 1670.8 24.4755 1671 25.3755C1669.5 25.4755 1667.4 25.5755 1665.7 26.8755C1663.8 28.2755 1663.2 31.1755 1663.6 31.9755C1664.3 33.5755 1666.5 32.5755 1665.9 31.0755C1666.3 27.5755 1668.6 27.8755 1672.1 27.7755C1677.8 35.9755 1687.2 29.1755 1691.4 31.0755C1676.6 42.9755 1652.3 51.9755 1646.3 53.6755C1644.7 54.0755 1643 54.4755 1641.4 54.7755C1637 55.6755 1632.6 56.0755 1628.1 56.1755C1623.4 56.2755 1618.8 56.0755 1614.1 55.3755C1609.3 54.6755 1604.5 53.6755 1599.9 52.1755C1595.1 50.6755 1590.4 48.7755 1585.9 46.3755C1581.2 43.9755 1576.7 41.0755 1572.5 37.8755C1570.3 36.1755 1568.2 34.3755 1566.2 32.4755C1565.2 31.4755 1564.2 30.4755 1563.2 29.4755C1562.7 28.9755 1562.2 28.4755 1561.7 27.8755C1561.2 27.3755 1560.7 26.7755 1560.5 26.0755C1560.5 25.8755 1560.4 25.6755 1560.6 25.4755C1560.8 25.1755 1561.5 25.4755 1561.7 25.5755C1561.8 25.6755 1562 25.7755 1562.1 25.7755C1562.4 25.9755 1562.7 26.0755 1563.1 26.1755C1563.7 26.4755 1564.4 26.6755 1565 26.7755C1566.3 27.0755 1567.7 27.2755 1569 27.1755C1572.6 27.0755 1576.6 25.6755 1579 22.8755C1581.5 19.8755 1580.7 16.0755 1578.3 13.2755C1576.9 11.6755 1574.5 10.8755 1571.9 11.9755C1568.6 13.3755 1568.5 17.2755 1570.6 17.7755C1572.3 18.2755 1572.6 16.0755 1571.4 15.6755C1570.9 14.3755 1573.1 12.4755 1575.5 12.9755C1580 14.2755 1582.3 24.1755 1569.4 24.8755C1565.2 24.8755 1564.3 24.2755 1561.8 22.9755C1564.4 17.4755 1567 8.47548 1563.7 2.97548C1561.9 -0.0245235 1559.2 0.475477 1557.8 2.57548C1555.4 6.27548 1555.6 15.0755 1555.4 19.8755C1552.9 17.7755 1545.6 11.8755 1542.4 11.4755C1537.7 10.8755 1536.6 16.7755 1547.5 22.6755C1549.3 23.6755 1555.1 25.1755 1557.6 26.4755C1557.4 26.8755 1557.2 27.1755 1557 27.5755C1555.2 30.8755 1554.2 33.8755 1552 35.3755C1550 36.3755 1547.5 36.8755 1545.4 35.7755C1541 33.0755 1543.7 29.2755 1545.4 30.0755C1547.1 31.1755 1546.8 34.1755 1548.6 33.4755C1549.6 33.0755 1549.3 32.0755 1548.8 31.1755C1548.1 29.7755 1546.9 28.2755 1545.4 28.0755C1542.1 27.6755 1539.1 32.5755 1543.1 36.4755C1544.1 37.4755 1545.1 37.9755 1546.1 38.2755C1548.2 39.0755 1550.4 39.0755 1552.9 38.2755C1556.4 37.1755 1558 32.7755 1559.5 29.5755C1562 32.7755 1565.2 35.6755 1568.4 38.1755C1567.4 40.6755 1565.8 45.8755 1562.3 53.3755C1561.3 55.4755 1557.9 62.0755 1556.4 66.1755C1554.5 71.1755 1560.7 67.3755 1568.5 65.9755C1569 65.8755 1573.1 64.9755 1573.5 65.1755C1574 65.5755 1576.4 71.7755 1576.6 72.3755C1579.2 78.8755 1578.9 80.4755 1580.2 80.9755C1583 82.0755 1583.8 75.3755 1595.8 55.1755C1596 54.7755 1596.2 54.3755 1596.5 53.9755C1602.8 56.3755 1605.7 56.7755 1614.5 58.0755C1613.8 58.9755 1616.8 85.5755 1617.4 89.9755C1617.6 91.1755 1618.3 91.6755 1619 91.5755C1620.6 91.3755 1622.7 86.1755 1629 79.0755C1634.7 83.1755 1639.9 90.2755 1640.8 90.8755C1641.9 91.6755 1643.3 91.4755 1643.6 89.3755C1644 86.7755 1642 62.1755 1642.5 58.0755C1642.5 57.6755 1642.4 57.2755 1642.2 56.9755C1648 55.6755 1651 54.6755 1658.6 51.4755C1658.8 52.2755 1670.4 78.3755 1672 79.2755C1672.6 79.5755 1673.4 79.3755 1673.9 78.3755C1675 76.1755 1676.5 63.1755 1677.9 61.3755C1678.9 61.4755 1685.7 64.7755 1689 66.5755C1693.7 69.3755 1694.8 70.6755 1696.3 69.9755C1697.7 69.2755 1697.4 67.5755 1697 66.0755C1695.4 60.5755 1691.3 53.1755 1687.5 43.0755C1686.9 41.3755 1686.3 39.7755 1685.3 38.2755C1688.2 36.3755 1690.5 34.7755 1693.1 32.6755C1693.4 33.0755 1693.8 33.8755 1694.1 34.1755C1695.4 36.7755 1696.2 39.7755 1699.1 43.4755C1701.1 45.9755 1705.5 48.1755 1708.7 47.1755C1713.2 45.7755 1713.8 35.2755 1709.3 33.8755C1708 33.4755 1706.6 33.9755 1705.7 35.1755C1703.1 38.8755 1706.3 39.6755 1706.9 38.1755C1707.5 36.5755 1707.4 35.8755 1708.4 35.4755C1709 35.3755 1709.4 35.5755 1709.8 35.9755C1711.1 37.3755 1711.1 40.2755 1710.6 42.1755C1710.2 43.4755 1709.6 44.9755 1708.3 45.3755C1706.2 45.8755 1703.6 44.3755 1702 42.9755C1700 40.8755 1697.7 35.4755 1696.5 33.1755C1704.9 33.0755 1716.6 16.6755 1710.4 13.1755ZM1672.8 25.1755C1672.3 23.6755 1673.1 19.6755 1675 18.3755C1678.8 16.2755 1683.7 20.2755 1678.8 23.4755C1677.6 24.1755 1675.4 24.9755 1672.8 25.1755ZM1571.6 15.8755C1571.5 15.7755 1571.5 15.8755 1571.6 15.8755C1571.5 15.7755 1571.5 15.8755 1571.6 15.8755ZM1541.1 14.0755C1541.1 13.9755 1541.1 14.0755 1541.1 14.0755C1541.1 13.9755 1541.1 13.9755 1541.1 14.0755C1541.1 14.0755 1541.1 13.9755 1541.1 14.0755ZM1541.1 14.0755C1541 14.0755 1541 14.0755 1541.1 14.0755C1541 14.0755 1541 14.0755 1541.1 14.0755ZM1547.8 20.5755C1545.8 19.3755 1541.4 16.4755 1541.1 14.0755C1541.6 11.2755 1552 20.1755 1555.9 23.5755C1551 21.8755 1550.4 21.9755 1547.8 20.5755ZM1562.3 4.57548C1563.5 6.47548 1563.6 9.27548 1563.5 11.3755C1563.4 13.3755 1562.8 15.1755 1562.2 17.1755C1561.6 19.2755 1560.7 21.2755 1559.6 23.1755C1559.5 23.3755 1559.3 23.6755 1559 23.6755C1558.8 23.6755 1558.7 23.3755 1558.6 23.1755C1558.4 22.4755 1558.3 21.8755 1558.2 21.1755C1558 18.9755 1558.3 16.5755 1558.4 14.3755C1558.5 12.2755 1558.7 10.0755 1559 7.97548C1559.2 6.67548 1559.4 4.97548 1560.2 3.87548C1561 2.87548 1561.9 3.87548 1562.3 4.57548ZM1581.3 77.5755C1580.7 75.1755 1577 64.0755 1574.7 62.9755C1572.1 61.7755 1559.4 66.3755 1558.6 66.5755C1566.7 49.7755 1564.7 55.1755 1570.4 39.7755C1583.5 49.6755 1585.6 49.8755 1594 53.0755C1592.6 55.3755 1582.3 75.7755 1581.3 77.5755ZM1641.1 87.2755C1638.5 83.9755 1635.6 80.9755 1632 77.9755C1628.2 74.7755 1628 76.0755 1623.1 82.6755C1620.9 85.5755 1620.4 86.5755 1619.6 87.8755C1619.6 87.6755 1616.9 58.5755 1616.8 58.4755C1622.8 59.1755 1632.8 58.9755 1639.6 57.6755C1638.7 60.7755 1641.1 83.3755 1641.1 87.2755ZM1694.1 66.1755C1690.2 63.5755 1680.3 58.1755 1677.4 58.5755C1673.7 59.0755 1673.9 69.2755 1672.4 76.5755C1670.7 72.2755 1661 50.8755 1660.9 50.6755C1667.6 47.8755 1676.8 43.7755 1682.9 39.8755C1684.3 42.2755 1693.3 62.5755 1694.1 66.1755ZM1691.6 6.77548C1694.4 11.7755 1694 22.2755 1693.4 27.9755C1684.2 1.17548 1689.2 2.97548 1691.6 6.77548ZM1695.8 30.6755C1697.1 26.6755 1708.5 11.2755 1710 15.5755C1711 20.6755 1701.6 30.9755 1695.8 30.6755Z" fill="#EFE2DA"/>
<path d="M1606 76.5754C1604.5 76.8754 1603.2 76.9754 1603.4 78.1754C1603.6 79.5754 1605.1 79.0754 1606.3 78.7754C1607 78.5754 1607.3 78.0754 1607.2 77.4754C1607.2 76.9754 1606.6 76.3754 1606 76.5754Z" fill="#EFE2DA"/>
<path d="M1607.7 89.9754C1608.3 91.3754 1609.7 90.3754 1611.9 89.1754C1613.5 88.2754 1612.1 86.2754 1611 86.9754C1608.3 88.3754 1607.2 88.7754 1607.7 89.9754Z" fill="#EFE2DA"/>
<path d="M1622.9 99.4755C1622.9 98.7755 1622.9 97.8754 1622.7 96.7754C1622.5 95.4754 1620.4 95.6754 1620.6 97.0754C1620.7 97.8754 1620.8 98.6755 1620.9 99.4755C1621.1 100.775 1622.9 100.575 1622.9 99.4755Z" fill="#EFE2DA"/>
<path d="M1635.2 97.1755C1634.6 94.9755 1634.6 94.2755 1634.1 93.8755C1633.6 93.4755 1632.8 93.5755 1632.4 94.0755C1631.9 94.7755 1632.2 95.2755 1632.9 97.6755C1633.6 99.1755 1635.5 98.2755 1635.2 97.1755Z" fill="#EFE2DA"/>
<path d="M1645.1 94.7754C1644.4 94.8754 1643.9 95.4755 1644 96.1755C1644.1 96.9755 1646.4 98.6755 1647 99.0755C1648.2 99.8755 1649.6 98.2755 1648.4 97.1755C1646 95.0755 1646 94.6754 1645.1 94.7754Z" fill="#EFE2DA"/>
<path d="M1648.1 86.4756C1649 86.5756 1649.9 86.5756 1650.9 86.6756C1651.7 86.7756 1652.4 86.0756 1652.2 85.2756C1652 84.1756 1651 84.1756 1648.4 83.9756C1646.6 83.8756 1646.6 86.3756 1648.1 86.4756Z" fill="#EFE2DA"/>
<path d="M1649.5 75.6755C1650.4 75.3755 1650.1 73.6755 1648.8 74.0755C1647.2 74.5755 1645.4 74.7755 1645.9 75.9755C1646.4 76.8755 1647.2 76.4755 1649.5 75.6755Z" fill="#EFE2DA"/>
<path d="M1661.7 73.4754C1661.2 73.7754 1661.1 74.1754 1661.3 74.5754C1661.7 75.5754 1662.7 74.8754 1664.8 73.8754C1665.2 73.6754 1665.5 73.1754 1665.3 72.6754C1664.7 71.5754 1663.5 72.3754 1661.7 73.4754Z" fill="#EFE2DA"/>
<path d="M1664.8 83.4754C1665.2 84.0754 1666.2 84.1754 1667.1 82.6754C1668.3 80.8754 1669.2 79.8754 1668.2 79.1754C1667.8 78.8754 1667 78.8754 1666.7 79.3754C1666.4 79.7754 1666.1 80.2754 1665.8 80.6754C1664.9 82.2754 1664.2 82.7754 1664.8 83.4754Z" fill="#EFE2DA"/>
<path d="M1679.3 88.9755C1678.9 87.8755 1678.5 86.7755 1678.1 85.6755C1677.9 85.0755 1677.1 84.7755 1676.5 85.0755C1675.2 85.5755 1675.8 86.9755 1677.2 89.9755C1677.8 91.1755 1679.9 90.4755 1679.3 88.9755Z" fill="#EFE2DA"/>
<path d="M1682.9 74.1756C1681.9 74.0756 1681.3 75.2756 1681.9 75.8756C1683.7 77.7756 1684.2 78.5756 1684.8 78.6756C1685.8 78.7756 1686.3 77.6756 1685.7 76.9756C1683.8 74.7756 1683.5 74.2756 1682.9 74.1756Z" fill="#EFE2DA"/>
<path d="M1692.2 74.6754C1692.8 78.4754 1692.8 79.7754 1694 79.6754C1695.3 79.4754 1694.9 78.4754 1694.3 74.3754C1694.2 72.9754 1692 73.3754 1692.2 74.6754Z" fill="#EFE2DA"/>
<path d="M1703.9 71.2755C1703.5 71.1755 1702 70.3755 1701.6 70.0755C1700.8 69.6755 1699.8 70.5755 1700.2 71.5755C1700.5 72.2755 1702.9 73.2755 1703.7 73.3755C1704.8 73.4755 1705.4 71.6755 1703.9 71.2755Z" fill="#EFE2DA"/>
<path d="M1702.3 57.4755C1700.8 58.7755 1697.9 59.1755 1698.6 60.7755C1698.9 61.3755 1699.6 61.5755 1700.1 61.3755C1702.3 60.1755 1704.9 58.9755 1703.8 57.6755C1703.4 57.2755 1702.7 57.1755 1702.3 57.4755Z" fill="#EFE2DA"/>
<path d="M1698.9 50.1756C1698.8 49.2756 1697.6 48.9756 1697.1 49.6756C1696.1 51.0756 1695.1 52.1756 1696.1 52.8756C1696.5 53.1756 1697.2 53.1756 1697.6 52.6756C1698.7 50.9756 1699 50.7756 1698.9 50.1756Z" fill="#EFE2DA"/>
<path d="M1590.4 79.5755C1590.7 79.9755 1591.2 79.9755 1591.6 79.6755C1592.7 78.8755 1591 77.6755 1589.9 76.7755C1589.5 76.4755 1589 76.5755 1588.7 76.9755C1588 77.8755 1589.2 78.3755 1590.1 79.2755C1590.2 79.3755 1590.3 79.4755 1590.4 79.5755Z" fill="#EFE2DA"/>
<path d="M1585.9 87.8755C1586.6 88.1755 1587.3 87.3755 1587 86.7755C1585.9 84.8755 1585.8 83.3755 1584.7 83.8755C1583.8 84.2755 1584.4 85.2755 1584.9 86.3755C1585 86.6755 1585.5 87.6755 1585.9 87.8755Z" fill="#EFE2DA"/>
<path d="M1579.4 85.3755C1579.5 84.7755 1579.1 84.2755 1578.5 84.1755C1576.6 83.9755 1577.3 87.6755 1576.5 89.6755C1576.2 90.2755 1576.8 91.0755 1577.5 90.9755C1578.5 90.8755 1578.8 88.8755 1579.4 85.3755Z" fill="#EFE2DA"/>
<path d="M1573.3 78.7755C1574.2 77.4755 1572.3 76.1755 1571.4 77.3755C1569.1 80.5755 1568.2 81.4755 1569.2 82.2755C1570.4 83.0755 1571.2 81.6755 1573.3 78.7755Z" fill="#EFE2DA"/>
<path d="M1565.7 77.5756C1566.2 76.3756 1566.2 75.2756 1566.5 72.6756C1566.6 72.0756 1566.2 71.5756 1565.6 71.4756C1563.8 71.2756 1564.6 74.2756 1563.9 76.7756C1563.5 78.2756 1565.3 78.5756 1565.7 77.5756Z" fill="#EFE2DA"/>
<path d="M1554.3 74.9754C1553.3 75.8754 1554.6 77.1754 1555.4 76.3754C1559.3 72.9754 1556.5 71.9754 1555.8 72.9754C1555.1 73.9754 1554.9 74.4754 1554.3 74.9754Z" fill="#EFE2DA"/>
<path d="M1549.5 64.4755C1548.7 64.3755 1548 65.3755 1548.6 66.0755C1549 66.5755 1550.6 66.7755 1553.5 67.3755C1554.1 67.4755 1554.8 66.8755 1554.7 66.1755C1554.6 65.1755 1554 65.1755 1549.5 64.4755Z" fill="#EFE2DA"/>
<path d="M1556.2 56.3756C1555.8 56.1756 1554.8 55.4756 1554.4 55.4756C1553.6 55.5756 1553.5 56.6756 1554 56.9756C1554.4 57.1756 1554.8 57.4756 1555.2 57.6756C1556.3 58.3756 1557.1 56.8756 1556.2 56.3756Z" fill="#EFE2DA"/>
<path d="M172.63 265.117C178.68 252.107 177.96 234.094 167.589 223.229C210.512 223.514 165.573 371.339 165.573 371.339H163.268C148.864 337.599 156.786 297.998 172.63 265.117Z" fill="#00A138"/>
<path d="M167.589 223.229C167.589 223.229 167.733 223.229 167.589 223.229C177.959 234.094 178.68 252.107 172.774 265.117C156.93 297.998 149.008 337.599 163.556 371.482H161.251C161.107 371.482 124.377 223.229 167.589 223.229Z" fill="#6FD189"/>
<path d="M217.282 273.266C218.291 273.695 219.299 274.124 220.307 274.838C244.65 290.85 206.624 325.733 174.215 314.439C174.215 314.439 174.215 314.296 174.359 314.153C186.026 313.296 197.261 309.579 206.047 301.287C213.97 294.71 219.155 283.702 217.282 273.266Z" fill="#00A138"/>
<path d="M217.282 273.266C219.154 283.702 213.825 294.71 206.191 301.144C197.405 309.436 186.17 313.153 174.503 314.01C176.375 309.579 196.685 265.117 217.282 273.266Z" fill="#6FD189"/>
<path d="M151.889 262.687C152.465 263.687 152.753 264.402 152.753 264.402V270.693C152.753 270.693 102.196 254.681 106.229 238.955C123.37 237.811 140.366 250.106 151.889 262.687Z" fill="#6FD189"/>
<path d="M106.373 238.955C106.806 237.239 107.814 235.524 109.686 233.951C126.539 218.94 147.424 254.395 151.889 262.687C140.366 250.106 123.37 237.811 106.373 238.955Z" fill="#00A138"/>
<path d="M118.617 189.489C120.345 188.632 122.362 188.632 124.81 189.632C141.807 196.209 120.201 235.381 120.201 235.381C120.057 235.095 119.769 234.809 119.625 234.523C123.658 220.083 128.267 201.212 118.617 189.489Z" fill="#00A138"/>
<path d="M118.616 189.489C128.267 201.212 123.801 219.94 119.48 234.38C112.278 223.943 109.11 194.207 118.616 189.489Z" fill="#6FD189"/>
<path d="M200.862 332.453H128.267C128.267 332.453 127.259 380.917 164.564 380.917C201.87 380.917 200.862 332.453 200.862 332.453Z" fill="#FFCC46"/>
<path d="M193.948 332.453H201.006C201.006 332.453 202.014 380.917 164.709 380.917C163.556 380.917 162.404 380.917 161.252 380.774C194.956 377.772 193.948 332.453 193.948 332.453Z" fill="#FFA42F"/>
<path d="M158.947 231.521C158.947 232.235 159.523 232.807 160.244 232.807C160.964 232.807 161.54 232.235 161.54 231.521C161.54 230.806 160.964 230.234 160.244 230.234C159.523 230.234 158.947 230.806 158.947 231.521Z" fill="#00A138"/>
<path d="M148.144 267.69C148.144 268.405 148.721 269.12 149.585 269.12C150.305 269.12 151.025 268.548 151.025 267.69C151.025 266.976 150.449 266.261 149.585 266.261C148.721 266.261 148.144 266.976 148.144 267.69Z" fill="#00A138"/>
<path d="M126.826 248.39C126.826 248.819 127.114 249.105 127.547 249.105C127.979 249.105 128.267 248.819 128.267 248.39C128.267 247.961 127.979 247.676 127.547 247.676C127.259 247.676 126.826 247.961 126.826 248.39Z" fill="#00A138"/>
<path d="M116.744 199.64C116.744 200.068 117.176 200.497 117.608 200.497C118.04 200.497 118.472 200.068 118.472 199.64C118.472 199.211 118.04 198.782 117.608 198.782C117.176 198.782 116.744 199.068 116.744 199.64Z" fill="#00A138"/>
<path d="M170.614 253.823C170.614 254.395 171.046 254.824 171.622 254.824C172.198 254.824 172.631 254.395 172.631 253.823C172.631 253.251 172.198 252.822 171.622 252.822C171.046 252.822 170.614 253.251 170.614 253.823Z" fill="#00A138"/>
<path d="M156.354 291.565C156.354 292.28 156.93 292.852 157.65 292.852C158.371 292.852 158.947 292.28 158.947 291.565C158.947 290.85 158.371 290.279 157.65 290.279C156.93 290.279 156.354 290.85 156.354 291.565Z" fill="#00A138"/>
<path d="M152.897 315.297C152.897 316.012 153.185 316.584 153.617 316.584C154.049 316.584 154.337 316.012 154.337 315.297C154.337 314.582 154.049 314.01 153.617 314.01C153.185 314.01 152.897 314.582 152.897 315.297Z" fill="#00A138"/>
<path d="M111.415 247.104C111.415 247.39 111.703 247.675 111.991 247.675C112.279 247.675 112.567 247.39 112.567 247.104C112.567 246.818 112.279 246.532 111.991 246.532C111.703 246.532 111.415 246.818 111.415 247.104Z" fill="#00A138"/>
<path d="M212.673 277.841C213.23 277.841 213.681 277.393 213.681 276.84C213.681 276.287 213.23 275.839 212.673 275.839C212.116 275.839 211.665 276.287 211.665 276.84C211.665 277.393 212.116 277.841 212.673 277.841Z" fill="#00A138"/>
<path d="M198.558 292.852C198.558 293.567 199.134 293.995 199.71 293.995C200.286 293.995 200.862 293.424 200.862 292.852C200.862 292.137 200.286 291.708 199.71 291.708C199.134 291.708 198.558 292.137 198.558 292.852Z" fill="#00A138"/>
<path d="M181.417 304.718C181.417 305.29 181.849 305.719 182.425 305.719C183.001 305.719 183.434 305.29 183.434 304.718C183.434 304.146 183.001 303.717 182.425 303.717C181.849 303.717 181.417 304.146 181.417 304.718Z" fill="#00A138"/>
<path d="M208.928 296.283C208.928 297.57 210.224 298.57 211.809 298.57C213.393 298.57 214.689 297.57 214.689 296.283C214.689 294.996 213.393 293.996 211.809 293.996C210.224 293.996 208.928 294.996 208.928 296.283Z" fill="#00A138"/>
<path d="M1712.3 210.863V176.863H1845.2V210.863H1831.8V244.863H1852.4V278.863V312.863H1854.5V346.863H1861.7V380.863H1728.8V346.863H1721.6V312.863H1719.6V278.863V244.863H1699V210.863H1712.3Z" fill="#FBFBFB"/>
<path d="M1712.3 210.863H1772.5L1712.3 204.363V210.863Z" fill="#E6E6E6"/>
<path d="M1845.2 201.163H1774L1845.2 198.763V201.163Z" fill="#E6E6E6"/>
<path d="M1831.8 210.863H1800.9L1831.8 214.363V210.863Z" fill="#E6E6E6"/>
<path d="M1712.3 181.863H1818.9L1712.3 184.263V181.863Z" fill="#E6E6E6"/>
<path d="M1845.2 190.863H1731.5L1845.2 188.263V190.863Z" fill="#E6E6E6"/>
<path d="M1699 217.763H1798.8L1699 221.463V217.763Z" fill="#E6E6E6"/>
<path d="M1719.6 244.863H1852.4L1719.6 251.263V244.863Z" fill="#E6E6E6"/>
<path d="M1831.8 237.263H1746.3L1831.8 234.663V237.263Z" fill="#E6E6E6"/>
<path d="M1699 230.163L1736.8 232.763H1699V230.163Z" fill="#E6E6E6"/>
<path d="M1852.4 278.863L1719.6 280.263L1852.4 283.663V278.863Z" fill="#E6E6E6"/>
<path d="M1852.4 255.163H1767.8L1852.4 258.063V255.163Z" fill="#E6E6E6"/>
<path d="M1719.6 263.863L1818.9 266.763L1719.6 268.063V263.863Z" fill="#E6E6E6"/>
<path d="M1719.6 274.163H1772.5L1719.6 276.763V274.163Z" fill="#E6E6E6"/>
<path d="M1719.6 312.863H1849.6L1719.6 304.763V312.863Z" fill="#E6E6E6"/>
<path d="M1852.4 293.163L1798.8 294.963L1852.4 296.563V293.163Z" fill="#E6E6E6"/>
<path d="M1719.6 287.663L1754 290.563H1719.6V287.663Z" fill="#E6E6E6"/>
<path d="M1854.5 320.763L1814.2 322.363H1854.5V320.763Z" fill="#E6E6E6"/>
<path d="M1854.5 333.263L1724 338.863H1854.5V333.263Z" fill="#E6E6E6"/>
<path d="M1861.7 346.863H1733.7L1861.7 353.163V346.863Z" fill="#E6E6E6"/>
<path d="M1728.8 354.063H1770.2L1728.8 358.163V354.063Z" fill="#E6E6E6"/>
<path d="M1861.7 365.263L1775.9 369.163H1861.7V365.263Z" fill="#E6E6E6"/>
<path d="M1861.7 380.863L1728.8 374.163V380.863H1861.7Z" fill="#E6E6E6"/>
<path d="M1883.1 369.163C1888.7 369.163 1893.3 367.663 1896.8 364.663C1903.5 358.863 1903.2 349.563 1903.2 349.163C1903.2 348.263 1902.4 347.463 1901.4 347.463H1882C1881 347.463 1880.2 348.263 1880.2 349.263C1880.2 350.263 1881 351.063 1882 351.063H1899.5C1899.3 353.663 1898.3 358.663 1894.4 362.063C1890.5 365.463 1884.5 366.463 1876.6 365.063C1875.6 364.863 1874.7 365.563 1874.5 366.463C1874.3 367.463 1875 368.363 1875.9 368.563C1878.5 368.863 1880.9 369.163 1883.1 369.163Z" fill="#E8462C"/>
<path d="M1888.1 344.063H1829C1829 344.063 1831.4 380.463 1858.5 380.963C1885.7 381.363 1888.1 344.063 1888.1 344.063Z" fill="#FF5B41"/>
<path d="M1855 374.263C1874.9 374.563 1881.5 354.763 1883.6 344.063H1888.1C1888.1 344.063 1885.7 381.363 1858.6 380.963C1844.9 380.763 1837.5 371.363 1833.6 362.163C1837.9 368.663 1844.7 374.063 1855 374.263Z" fill="#E8462C"/>
<path d="M1791.4 314.763V291.863H1681C1702.1 299.563 1720 312.663 1743.5 317.463C1760.1 320.763 1775.9 318.563 1791.4 314.763Z" fill="#7860DC"/>
<path d="M1743.5 317.463C1720 312.663 1702.1 299.563 1681 291.863H1676.4V321.363H1791.5V314.763C1775.9 318.563 1760.1 320.763 1743.5 317.463Z" fill="#6A51D4"/>
<path d="M1712.1 366.563C1733.4 373.263 1755.5 374.263 1777.2 371.663V350.863H1662.2V351.563C1679.5 351.163 1696 361.763 1712.1 366.563Z" fill="#FF5B41"/>
<path d="M1712.1 366.563C1696 361.763 1679.5 351.163 1662.2 351.563V380.363H1777.3V371.663C1755.5 374.263 1733.5 373.263 1712.1 366.563Z" fill="#F23F22"/>
<path d="M1769.1 344.563V321.363H1662.5C1675.8 324.863 1688.4 333.863 1701.7 338.463C1723.7 345.063 1746.6 346.963 1769.1 344.563Z" fill="#FFA42F"/>
<path d="M1701.7 338.463C1688.4 333.863 1675.8 324.863 1662.5 321.363H1654V350.863H1769.1V344.563C1746.6 346.963 1723.7 345.063 1701.7 338.463Z" fill="#FA9514"/>
<path d="M1690.5 313.563C1686.7 313.563 1683.5 310.463 1683.5 306.563C1683.5 302.763 1686.6 299.563 1690.5 299.563C1694.4 299.563 1697.5 302.663 1697.5 306.563C1697.4 310.463 1694.3 313.563 1690.5 313.563Z" fill="white"/>
<path d="M1668.2 343.063C1664.4 343.063 1661.2 339.963 1661.2 336.063C1661.2 332.163 1664.3 329.063 1668.2 329.063C1672.1 329.063 1675.2 332.163 1675.2 336.063C1675.2 339.963 1672 343.063 1668.2 343.063Z" fill="white"/>
<path d="M1676.3 372.563C1672.5 372.563 1669.3 369.463 1669.3 365.563C1669.3 361.663 1672.4 358.563 1676.3 358.563C1680.1 358.563 1683.3 361.663 1683.3 365.563C1683.3 369.463 1680.2 372.563 1676.3 372.563Z" fill="white"/>
</g>
</svg>
