<svg width="19" height="20" viewBox="0 0 19 20" fill="none" xmlns="http://www.w3.org/2000/svg">
<path d="M9.38028 0.664062C14.0455 0.664062 17.82 4.83594 17.82 9.98438C17.82 15.1328 14.0455 19.3125 9.38028 19.3125C4.71511 19.3125 0.940552 15.1406 0.940552 9.99219C0.940552 4.84375 4.71511 0.664062 9.38028 0.664062Z" fill="#E74D89"/>
<path d="M9.38093 19.9766C4.3906 19.9766 0.333313 15.5 0.333313 9.99219C0.333313 4.47656 4.3906 0 9.38093 0C14.3713 0 18.4286 4.47656 18.4286 9.98438C18.4286 15.4922 14.3713 19.9766 9.38093 19.9766ZM17.0078 11.3516C16.7463 11.2578 14.6187 10.5625 12.1942 10.9844C13.205 14.0469 13.6149 16.5469 13.6927 17.0625C15.4315 15.7734 16.6685 13.7266 17.0078 11.3516ZM12.3992 17.8516C12.2861 17.1016 11.8337 14.4922 10.7522 11.3828C10.7381 11.3906 10.7169 11.3984 10.7027 11.3984C6.3415 13.0781 4.77937 16.4141 4.638 16.7266C5.94566 17.8516 7.59261 18.5234 9.38093 18.5234C10.4483 18.5312 11.4732 18.2891 12.3992 17.8516ZM3.64135 15.7031C3.81806 15.375 5.9386 11.5 9.9252 10.0703C10.0242 10.0312 10.1302 10 10.2291 9.96875C10.0383 9.48438 9.82624 9 9.60005 8.52344C5.74068 9.79688 1.9944 9.74219 1.65511 9.73438C1.65511 9.82031 1.64805 9.90625 1.64805 9.99219C1.65511 12.1875 2.40437 14.1875 3.64135 15.7031ZM1.81769 8.25C2.16404 8.25781 5.34485 8.27344 8.96389 7.21094C7.6845 4.69531 6.29909 2.58594 6.10117 2.28125C3.93115 3.40625 2.31955 5.60938 1.81769 8.25ZM7.57141 1.70312C7.78346 2.01562 9.19008 4.125 10.4553 6.69531C13.205 5.55469 14.3642 3.83594 14.5056 3.61719C13.1413 2.28125 11.346 1.46875 9.38093 1.46875C8.75891 1.46875 8.15102 1.55469 7.57141 1.70312ZM15.3608 4.60156C15.1983 4.84375 13.9047 6.67969 11.0491 7.96875C11.2258 8.375 11.4025 8.78906 11.5651 9.20312C11.6216 9.35156 11.6782 9.5 11.7347 9.64062C14.3076 9.28125 16.8594 9.85938 17.1138 9.91406C17.0926 7.90625 16.4423 6.05469 15.3608 4.60156Z" fill="#B2215A"/>
</svg>
