<svg width="20" height="20" viewBox="0 0 20 20" fill="none" xmlns="http://www.w3.org/2000/svg">
<path fill-rule="evenodd" clip-rule="evenodd" d="M9.99996 0.000488281C4.48608 0.000488281 0 4.48542 0 10.0005C0 15.5144 4.48608 19.9999 9.99996 19.9999C15.5138 19.9999 20 15.5144 20 10.0005C20 4.48542 15.5138 0.000488281 9.99996 0.000488281ZM15.575 6.66552L9.42112 13.5886C9.2696 13.7585 9.05846 13.8462 8.84571 13.8462C8.67691 13.8462 8.50731 13.7908 8.3654 13.6784L4.51916 10.601C4.18761 10.336 4.13384 9.85155 4.39921 9.51929C4.66426 9.18811 5.1488 9.13381 5.48035 9.39939L8.7561 12.0198L14.4249 5.64294C14.7066 5.32467 15.1934 5.29617 15.5107 5.57898C15.8284 5.86123 15.8573 6.34725 15.575 6.66552Z" fill="#3FDBB1"/>
</svg>
