<svg width="19" height="20" viewBox="0 0 19 20" fill="none" xmlns="http://www.w3.org/2000/svg">
<path d="M9.71438 0C4.71813 0 0.666687 4.47709 0.666687 10.0001C0.666687 14.4184 3.25913 18.1668 6.85405 19.4891C7.30623 19.5817 7.47223 19.2722 7.47223 19.0081C7.47223 18.7696 7.46384 17.9819 7.45995 17.1463C4.94287 17.7512 4.41174 15.9664 4.41174 15.9664C4.00017 14.8105 3.40715 14.5032 3.40715 14.5032C2.58626 13.8825 3.46903 13.8953 3.46903 13.8953C4.37758 13.9658 4.85597 14.9258 4.85597 14.9258C5.66294 16.4546 6.97256 16.0126 7.48886 15.7571C7.57007 15.1107 7.80455 14.6696 8.0633 14.4199C6.05368 14.167 3.94113 13.3095 3.94113 9.47779C3.94113 8.38601 4.29457 7.49394 4.87335 6.79362C4.77941 6.54175 4.46972 5.52465 4.961 4.14722C4.961 4.14722 5.72077 3.87845 7.44976 5.17226C8.17147 4.95069 8.94547 4.83958 9.71438 4.83577C10.4833 4.83958 11.2579 4.95069 11.9809 5.17226C13.7078 3.87845 14.4666 4.14722 14.4666 4.14722C14.959 5.52465 14.6492 6.54175 14.5553 6.79362C15.1354 7.49394 15.4864 8.38601 15.4864 9.47779C15.4864 13.3187 13.3698 14.1644 11.3551 14.4119C11.6796 14.7223 11.9688 15.3308 11.9688 16.2638C11.9688 17.6018 11.9583 18.6787 11.9583 19.0081C11.9583 19.2742 12.1212 19.586 12.5798 19.4878C16.1728 18.164 18.7619 14.4169 18.7619 10.0001C18.7619 4.47709 14.7111 0 9.71438 0ZM4.05534 14.2453C4.03542 14.295 3.9647 14.3099 3.90027 14.2758C3.83465 14.2432 3.79779 14.1754 3.81907 14.1256C3.83854 14.0744 3.90941 14.0602 3.97489 14.0945C4.04066 14.1271 4.07812 14.1955 4.05534 14.2453ZM4.50039 14.6842C4.45724 14.7285 4.37289 14.7079 4.31565 14.638C4.25647 14.5683 4.24538 14.4751 4.28913 14.4302C4.33363 14.386 4.41544 14.4067 4.47477 14.4764C4.53395 14.547 4.54549 14.6395 4.50039 14.6842ZM4.80571 15.2458C4.75027 15.2884 4.65963 15.2485 4.60359 15.1595C4.54816 15.0706 4.54816 14.964 4.60479 14.9212C4.66097 14.8785 4.75027 14.9169 4.80706 15.0052C4.86234 15.0956 4.86234 15.2023 4.80571 15.2458ZM5.32207 15.8962C5.27247 15.9566 5.16685 15.9404 5.08954 15.8579C5.01043 15.7773 4.9884 15.6629 5.03815 15.6024C5.08834 15.5418 5.19456 15.5589 5.27247 15.6407C5.35098 15.7211 5.37495 15.8364 5.32207 15.8962ZM5.98941 16.1157C5.96753 16.1941 5.8658 16.2297 5.76332 16.1964C5.66099 16.1621 5.59402 16.0704 5.61469 15.9912C5.63597 15.9124 5.73815 15.8753 5.84138 15.9109C5.94356 15.945 6.01068 16.0361 5.98941 16.1157ZM6.74887 16.2089C6.75142 16.2913 6.66452 16.3597 6.55695 16.3612C6.44877 16.3639 6.36127 16.2971 6.36008 16.216C6.36008 16.1327 6.44503 16.065 6.5532 16.063C6.66078 16.0607 6.74887 16.1269 6.74887 16.2089ZM7.49496 16.1773C7.50785 16.2577 7.43309 16.3404 7.32626 16.3624C7.22123 16.3836 7.12399 16.3339 7.11066 16.2541C7.09763 16.1716 7.17374 16.089 7.27861 16.0676C7.38559 16.0471 7.48133 16.0955 7.49496 16.1773Z" fill="#161614"/>
</svg>
