<svg width="19" height="17" viewBox="0 0 19 17" fill="none" xmlns="http://www.w3.org/2000/svg">
<path d="M18.0952 1.98827C17.4294 2.31462 16.714 2.53518 15.963 2.63438C16.7295 2.12654 17.3181 1.32241 17.5953 0.364293C16.878 0.834464 16.0835 1.17595 15.2379 1.36001C14.5606 0.562545 13.5958 0.064209 12.5281 0.064209C10.4778 0.064209 8.8155 1.90136 8.8155 4.16736C8.8155 4.48895 8.84839 4.80213 8.91167 5.10243C5.82623 4.93132 3.09073 3.29776 1.2597 0.815297C0.94014 1.42132 0.757062 2.12617 0.757062 2.87814C0.757062 4.30167 1.41253 5.55761 2.40866 6.29341C1.80006 6.27212 1.22766 6.08755 0.727079 5.78022C0.726814 5.79734 0.726815 5.81453 0.726815 5.83179C0.726815 7.81987 2.0065 9.47831 3.70483 9.8552C3.39328 9.94899 3.06532 9.9991 2.7267 9.9991C2.48749 9.9991 2.25491 9.97342 2.02828 9.92551C2.50066 11.5557 3.87169 12.742 5.49622 12.7751C4.22566 13.8756 2.6249 14.5316 0.8856 14.5316C0.585966 14.5316 0.290435 14.5122 0 14.4743C1.64293 15.6385 3.59436 16.3178 5.69088 16.3178C12.5194 16.3178 16.2535 10.0654 16.2535 4.64316C16.2535 4.46525 16.2499 4.28828 16.2428 4.11235C16.9681 3.53383 17.5975 2.81113 18.0952 1.98827Z" fill="#55ACEE"/>
</svg>
